<svg width="251" height="152" viewBox="0 0 251 152" fill="none" xmlns="http://www.w3.org/2000/svg">
<path d="M123.389 80.2525L64.0838 94.4857C63.0476 89.9915 62.5 85.31 62.5 80.5C62.5 66.0454 67.4459 52.7473 75.7381 42.2038L123.389 80.2525ZM64.3163 95.4583L123.546 81.243L95.2901 135.202C80.0251 127.034 68.5781 112.662 64.3163 95.4583ZM124 79.4609L76.3625 41.4227C87.6336 27.5555 104.775 18.6538 124 18.502V79.4609ZM125 79.4609V18.502C144.225 18.6538 161.366 27.5555 172.637 41.4227L125 79.4609ZM125.604 80.2579L173.262 42.2038C181.554 52.7473 186.5 66.0454 186.5 80.5C186.5 85.4558 185.919 90.2753 184.821 94.8941L125.604 80.2579ZM125.385 81.2339L184.581 95.865C179.962 113.982 167.362 128.912 150.746 136.687L125.385 81.2339ZM149.837 137.104C142.102 140.571 133.527 142.5 124.5 142.5C114.294 142.5 104.665 140.034 96.1756 135.667L124.47 81.6358L149.837 137.104Z" stroke="#ECE9E9"/>
<circle cx="124.351" cy="81.3512" r="49.5" transform="rotate(1.57013 124.351 81.3512)" stroke="#ECE9E9"/>
<circle cx="124" cy="81" r="19.5" stroke="#ECE9E9"/>
<circle cx="124" cy="81" r="34.5" stroke="#ECE9E9"/>
<path d="M83.5 51.5L89.5 43.5L93.5 42H99.5H104L112 43.5L121.5 47.5L129.5 49L135 47.5L141.5 45.5L147 43.5L155 42L163 43.5L168.5 47.5L172.5 54.5V62.5L168.5 73L163 81.5L160 86.5V91V97V113V121.5L157 128L153 133H147L141.5 129.5L136.5 125.5L129.5 116.5L125 109L118 102L108.5 100.5L96.5 99H86L80 97L76 94V86.5V75L78.5 62.5L83.5 51.5Z" fill="#95D1CE" fill-opacity="0.2" stroke="#95D1CE" stroke-width="1.4"/>
<path d="M92 60.5L89 67.5V73.5L92 78.5L96 83.5L100 90L102 97.5V106L101.5 111.5L103 119L106.5 124L113.5 127L120.5 130L128 132H136.5L145 131L149.5 128.5L157.5 121L162 113.5L165.5 105L168 93.5L169.5 83.5V73.5L165.5 63.5L155 53L146.5 46L137.5 40L131.5 38H124L116.5 40L106.5 46L98.5 53L92 60.5Z" fill="#81A4C0" fill-opacity="0.2" stroke="#81A4C0" stroke-width="1.4"/>
<path d="M100.494 6.51C100.494 5.83 100.651 5.22 100.964 4.68C101.284 4.14 101.714 3.72 102.254 3.42C102.801 3.11333 103.397 2.96 104.044 2.96C104.784 2.96 105.441 3.14333 106.014 3.51C106.594 3.87 107.014 4.38333 107.274 5.05H105.904C105.724 4.68333 105.474 4.41 105.154 4.23C104.834 4.05 104.464 3.96 104.044 3.96C103.584 3.96 103.174 4.06333 102.814 4.27C102.454 4.47667 102.171 4.77333 101.964 5.16C101.764 5.54667 101.664 5.99667 101.664 6.51C101.664 7.02333 101.764 7.47333 101.964 7.86C102.171 8.24667 102.454 8.54667 102.814 8.76C103.174 8.96667 103.584 9.07 104.044 9.07C104.464 9.07 104.834 8.98 105.154 8.8C105.474 8.62 105.724 8.34667 105.904 7.98H107.274C107.014 8.64667 106.594 9.16 106.014 9.52C105.441 9.88 104.784 10.06 104.044 10.06C103.391 10.06 102.794 9.91 102.254 9.61C101.714 9.30333 101.284 8.88 100.964 8.34C100.651 7.8 100.494 7.19 100.494 6.51ZM108.228 7.22C108.228 6.66667 108.342 6.17667 108.568 5.75C108.802 5.32333 109.115 4.99333 109.508 4.76C109.908 4.52 110.348 4.4 110.828 4.4C111.262 4.4 111.638 4.48667 111.958 4.66C112.285 4.82667 112.545 5.03667 112.738 5.29V4.49H113.888V10H112.738V9.18C112.545 9.44 112.282 9.65667 111.948 9.83C111.615 10.0033 111.235 10.09 110.808 10.09C110.335 10.09 109.902 9.97 109.508 9.73C109.115 9.48333 108.802 9.14333 108.568 8.71C108.342 8.27 108.228 7.77333 108.228 7.22ZM112.738 7.24C112.738 6.86 112.658 6.53 112.498 6.25C112.345 5.97 112.142 5.75667 111.888 5.61C111.635 5.46333 111.362 5.39 111.068 5.39C110.775 5.39 110.502 5.46333 110.248 5.61C109.995 5.75 109.788 5.96 109.628 6.24C109.475 6.51333 109.398 6.84 109.398 7.22C109.398 7.6 109.475 7.93333 109.628 8.22C109.788 8.50667 109.995 8.72667 110.248 8.88C110.508 9.02667 110.782 9.1 111.068 9.1C111.362 9.1 111.635 9.02667 111.888 8.88C112.142 8.73333 112.345 8.52 112.498 8.24C112.658 7.95333 112.738 7.62 112.738 7.24ZM116.526 5.29C116.692 5.01 116.912 4.79333 117.186 4.64C117.466 4.48 117.796 4.4 118.176 4.4V5.58H117.886C117.439 5.58 117.099 5.69333 116.866 5.92C116.639 6.14667 116.526 6.54 116.526 7.1V10H115.386V4.49H116.526V5.29ZM118.844 7.22C118.844 6.66667 118.957 6.17667 119.184 5.75C119.417 5.32333 119.73 4.99333 120.124 4.76C120.524 4.52 120.967 4.4 121.454 4.4C121.814 4.4 122.167 4.48 122.514 4.64C122.867 4.79333 123.147 5 123.354 5.26V2.6H124.504V10H123.354V9.17C123.167 9.43667 122.907 9.65667 122.574 9.83C122.247 10.0033 121.87 10.09 121.444 10.09C120.964 10.09 120.524 9.97 120.124 9.73C119.73 9.48333 119.417 9.14333 119.184 8.71C118.957 8.27 118.844 7.77333 118.844 7.22ZM123.354 7.24C123.354 6.86 123.274 6.53 123.114 6.25C122.96 5.97 122.757 5.75667 122.504 5.61C122.25 5.46333 121.977 5.39 121.684 5.39C121.39 5.39 121.117 5.46333 120.864 5.61C120.61 5.75 120.404 5.96 120.244 6.24C120.09 6.51333 120.014 6.84 120.014 7.22C120.014 7.6 120.09 7.93333 120.244 8.22C120.404 8.50667 120.61 8.72667 120.864 8.88C121.124 9.02667 121.397 9.1 121.684 9.1C121.977 9.1 122.25 9.02667 122.504 8.88C122.757 8.73333 122.96 8.52 123.114 8.24C123.274 7.95333 123.354 7.62 123.354 7.24ZM126.581 3.76C126.374 3.76 126.201 3.69 126.061 3.55C125.921 3.41 125.851 3.23667 125.851 3.03C125.851 2.82333 125.921 2.65 126.061 2.51C126.201 2.37 126.374 2.3 126.581 2.3C126.781 2.3 126.951 2.37 127.091 2.51C127.231 2.65 127.301 2.82333 127.301 3.03C127.301 3.23667 127.231 3.41 127.091 3.55C126.951 3.69 126.781 3.76 126.581 3.76ZM127.141 4.49V10H126.001V4.49H127.141ZM131.028 10.09C130.508 10.09 130.038 9.97333 129.618 9.74C129.198 9.5 128.868 9.16667 128.628 8.74C128.388 8.30667 128.268 7.80667 128.268 7.24C128.268 6.68 128.391 6.18333 128.638 5.75C128.884 5.31667 129.221 4.98333 129.648 4.75C130.074 4.51667 130.551 4.4 131.078 4.4C131.604 4.4 132.081 4.51667 132.508 4.75C132.934 4.98333 133.271 5.31667 133.518 5.75C133.764 6.18333 133.888 6.68 133.888 7.24C133.888 7.8 133.761 8.29667 133.508 8.73C133.254 9.16333 132.908 9.5 132.468 9.74C132.034 9.97333 131.554 10.09 131.028 10.09ZM131.028 9.1C131.321 9.1 131.594 9.03 131.848 8.89C132.108 8.75 132.318 8.54 132.478 8.26C132.638 7.98 132.718 7.64 132.718 7.24C132.718 6.84 132.641 6.50333 132.488 6.23C132.334 5.95 132.131 5.74 131.878 5.6C131.624 5.46 131.351 5.39 131.058 5.39C130.764 5.39 130.491 5.46 130.238 5.6C129.991 5.74 129.794 5.95 129.648 6.23C129.501 6.50333 129.428 6.84 129.428 7.24C129.428 7.83333 129.578 8.29333 129.878 8.62C130.184 8.94 130.568 9.1 131.028 9.1ZM136.155 2.6V10H135.015V2.6H136.155ZM140.041 10.09C139.521 10.09 139.051 9.97333 138.631 9.74C138.211 9.5 137.881 9.16667 137.641 8.74C137.401 8.30667 137.281 7.80667 137.281 7.24C137.281 6.68 137.405 6.18333 137.651 5.75C137.898 5.31667 138.235 4.98333 138.661 4.75C139.088 4.51667 139.565 4.4 140.091 4.4C140.618 4.4 141.095 4.51667 141.521 4.75C141.948 4.98333 142.285 5.31667 142.531 5.75C142.778 6.18333 142.901 6.68 142.901 7.24C142.901 7.8 142.775 8.29667 142.521 8.73C142.268 9.16333 141.921 9.5 141.481 9.74C141.048 9.97333 140.568 10.09 140.041 10.09ZM140.041 9.1C140.335 9.1 140.608 9.03 140.861 8.89C141.121 8.75 141.331 8.54 141.491 8.26C141.651 7.98 141.731 7.64 141.731 7.24C141.731 6.84 141.655 6.50333 141.501 6.23C141.348 5.95 141.145 5.74 140.891 5.6C140.638 5.46 140.365 5.39 140.071 5.39C139.778 5.39 139.505 5.46 139.251 5.6C139.005 5.74 138.808 5.95 138.661 6.23C138.515 6.50333 138.441 6.84 138.441 7.24C138.441 7.83333 138.591 8.29333 138.891 8.62C139.198 8.94 139.581 9.1 140.041 9.1ZM146.248 4.4C146.675 4.4 147.052 4.48667 147.378 4.66C147.712 4.82667 147.972 5.03667 148.158 5.29V4.49H149.308V10.09C149.308 10.5967 149.202 11.0467 148.988 11.44C148.775 11.84 148.465 12.1533 148.058 12.38C147.658 12.6067 147.178 12.72 146.618 12.72C145.872 12.72 145.252 12.5433 144.758 12.19C144.265 11.8433 143.985 11.37 143.918 10.77H145.048C145.135 11.0567 145.318 11.2867 145.598 11.46C145.885 11.64 146.225 11.73 146.618 11.73C147.078 11.73 147.448 11.59 147.728 11.31C148.015 11.03 148.158 10.6233 148.158 10.09V9.17C147.965 9.43 147.702 9.65 147.368 9.83C147.042 10.0033 146.668 10.09 146.248 10.09C145.768 10.09 145.328 9.97 144.928 9.73C144.535 9.48333 144.222 9.14333 143.988 8.71C143.762 8.27 143.648 7.77333 143.648 7.22C143.648 6.66667 143.762 6.17667 143.988 5.75C144.222 5.32333 144.535 4.99333 144.928 4.76C145.328 4.52 145.768 4.4 146.248 4.4ZM148.158 7.24C148.158 6.86 148.078 6.53 147.918 6.25C147.765 5.97 147.562 5.75667 147.308 5.61C147.055 5.46333 146.782 5.39 146.488 5.39C146.195 5.39 145.922 5.46333 145.668 5.61C145.415 5.75 145.208 5.96 145.048 6.24C144.895 6.51333 144.818 6.84 144.818 7.22C144.818 7.6 144.895 7.93333 145.048 8.22C145.208 8.50667 145.415 8.72667 145.668 8.88C145.928 9.02667 146.202 9.1 146.488 9.1C146.782 9.1 147.055 9.02667 147.308 8.88C147.562 8.73333 147.765 8.52 147.918 8.24C148.078 7.95333 148.158 7.62 148.158 7.24ZM155.766 4.49L152.386 12.59H151.206L152.326 9.91L150.156 4.49H151.426L152.976 8.69L154.586 4.49H155.766Z" fill="#C2C7CD"/>
<path d="M15.4337 39.07C14.787 39.07 14.1903 38.92 13.6437 38.62C13.1037 38.3133 12.6737 37.89 12.3537 37.35C12.0403 36.8033 11.8837 36.19 11.8837 35.51C11.8837 34.83 12.0403 34.22 12.3537 33.68C12.6737 33.14 13.1037 32.72 13.6437 32.42C14.1903 32.1133 14.787 31.96 15.4337 31.96C16.087 31.96 16.6837 32.1133 17.2237 32.42C17.7703 32.72 18.2003 33.14 18.5137 33.68C18.827 34.22 18.9837 34.83 18.9837 35.51C18.9837 36.19 18.827 36.8033 18.5137 37.35C18.2003 37.89 17.7703 38.3133 17.2237 38.62C16.6837 38.92 16.087 39.07 15.4337 39.07ZM15.4337 38.08C15.8937 38.08 16.3037 37.9767 16.6637 37.77C17.0237 37.5567 17.3037 37.2567 17.5037 36.87C17.7103 36.4767 17.8137 36.0233 17.8137 35.51C17.8137 34.9967 17.7103 34.5467 17.5037 34.16C17.3037 33.7733 17.0237 33.4767 16.6637 33.27C16.3037 33.0633 15.8937 32.96 15.4337 32.96C14.9737 32.96 14.5637 33.0633 14.2037 33.27C13.8437 33.4767 13.5603 33.7733 13.3537 34.16C13.1537 34.5467 13.0537 34.9967 13.0537 35.51C13.0537 36.0233 13.1537 36.4767 13.3537 36.87C13.5603 37.2567 13.8437 37.5567 14.2037 37.77C14.5637 37.9767 14.9737 38.08 15.4337 38.08ZM21.2455 34.29C21.4121 34.01 21.6321 33.7933 21.9055 33.64C22.1855 33.48 22.5155 33.4 22.8955 33.4V34.58H22.6055C22.1588 34.58 21.8188 34.6933 21.5855 34.92C21.3588 35.1467 21.2455 35.54 21.2455 36.1V39H20.1055V33.49H21.2455V34.29ZM25.2734 34.42V37.47C25.2734 37.6767 25.32 37.8267 25.4134 37.92C25.5134 38.0067 25.68 38.05 25.9134 38.05H26.6134V39H25.7134C25.2 39 24.8067 38.88 24.5334 38.64C24.26 38.4 24.1234 38.01 24.1234 37.47V34.42H23.4734V33.49H24.1234V32.12H25.2734V33.49H26.6134V34.42H25.2734ZM30.5141 33.4C30.9341 33.4 31.3074 33.49 31.6341 33.67C31.9674 33.85 32.2274 34.1167 32.4141 34.47C32.6074 34.8233 32.7041 35.25 32.7041 35.75V39H31.5741V35.92C31.5741 35.4267 31.4507 35.05 31.2041 34.79C30.9574 34.5233 30.6207 34.39 30.1941 34.39C29.7674 34.39 29.4274 34.5233 29.1741 34.79C28.9274 35.05 28.8041 35.4267 28.8041 35.92V39H27.6641V31.6H28.8041V34.13C28.9974 33.8967 29.2407 33.7167 29.5341 33.59C29.8341 33.4633 30.1607 33.4 30.5141 33.4ZM36.5482 39.09C36.0282 39.09 35.5582 38.9733 35.1382 38.74C34.7182 38.5 34.3882 38.1667 34.1482 37.74C33.9082 37.3067 33.7882 36.8067 33.7882 36.24C33.7882 35.68 33.9115 35.1833 34.1582 34.75C34.4049 34.3167 34.7415 33.9833 35.1682 33.75C35.5949 33.5167 36.0715 33.4 36.5982 33.4C37.1249 33.4 37.6015 33.5167 38.0282 33.75C38.4549 33.9833 38.7915 34.3167 39.0382 34.75C39.2849 35.1833 39.4082 35.68 39.4082 36.24C39.4082 36.8 39.2815 37.2967 39.0282 37.73C38.7749 38.1633 38.4282 38.5 37.9882 38.74C37.5549 38.9733 37.0749 39.09 36.5482 39.09ZM36.5482 38.1C36.8415 38.1 37.1149 38.03 37.3682 37.89C37.6282 37.75 37.8382 37.54 37.9982 37.26C38.1582 36.98 38.2382 36.64 38.2382 36.24C38.2382 35.84 38.1615 35.5033 38.0082 35.23C37.8549 34.95 37.6515 34.74 37.3982 34.6C37.1449 34.46 36.8715 34.39 36.5782 34.39C36.2849 34.39 36.0115 34.46 35.7582 34.6C35.5115 34.74 35.3149 34.95 35.1682 35.23C35.0215 35.5033 34.9482 35.84 34.9482 36.24C34.9482 36.8333 35.0982 37.2933 35.3982 37.62C35.7049 37.94 36.0882 38.1 36.5482 38.1ZM41.6752 34.3C41.8685 34.0467 42.1318 33.8333 42.4652 33.66C42.7985 33.4867 43.1752 33.4 43.5952 33.4C44.0752 33.4 44.5118 33.52 44.9052 33.76C45.3052 33.9933 45.6185 34.3233 45.8452 34.75C46.0718 35.1767 46.1852 35.6667 46.1852 36.22C46.1852 36.7733 46.0718 37.27 45.8452 37.71C45.6185 38.1433 45.3052 38.4833 44.9052 38.73C44.5118 38.97 44.0752 39.09 43.5952 39.09C43.1752 39.09 42.8018 39.0067 42.4752 38.84C42.1485 38.6667 41.8818 38.4533 41.6752 38.2V41.62H40.5352V33.49H41.6752V34.3ZM45.0252 36.22C45.0252 35.84 44.9452 35.5133 44.7852 35.24C44.6318 34.96 44.4252 34.75 44.1652 34.61C43.9118 34.4633 43.6385 34.39 43.3452 34.39C43.0585 34.39 42.7852 34.4633 42.5252 34.61C42.2718 34.7567 42.0652 34.97 41.9052 35.25C41.7518 35.53 41.6752 35.86 41.6752 36.24C41.6752 36.62 41.7518 36.9533 41.9052 37.24C42.0652 37.52 42.2718 37.7333 42.5252 37.88C42.7852 38.0267 43.0585 38.1 43.3452 38.1C43.6385 38.1 43.9118 38.0267 44.1652 37.88C44.4252 37.7267 44.6318 37.5067 44.7852 37.22C44.9452 36.9333 45.0252 36.6 45.0252 36.22ZM52.3625 36.11C52.3625 36.3167 52.3492 36.5033 52.3225 36.67H48.1125C48.1458 37.11 48.3092 37.4633 48.6025 37.73C48.8958 37.9967 49.2558 38.13 49.6825 38.13C50.2958 38.13 50.7292 37.8733 50.9825 37.36H52.2125C52.0458 37.8667 51.7425 38.2833 51.3025 38.61C50.8692 38.93 50.3292 39.09 49.6825 39.09C49.1558 39.09 48.6825 38.9733 48.2625 38.74C47.8492 38.5 47.5225 38.1667 47.2825 37.74C47.0492 37.3067 46.9325 36.8067 46.9325 36.24C46.9325 35.6733 47.0458 35.1767 47.2725 34.75C47.5058 34.3167 47.8292 33.9833 48.2425 33.75C48.6625 33.5167 49.1425 33.4 49.6825 33.4C50.2025 33.4 50.6658 33.5133 51.0725 33.74C51.4792 33.9667 51.7958 34.2867 52.0225 34.7C52.2492 35.1067 52.3625 35.5767 52.3625 36.11ZM51.1725 35.75C51.1658 35.33 51.0158 34.9933 50.7225 34.74C50.4292 34.4867 50.0658 34.36 49.6325 34.36C49.2392 34.36 48.9025 34.4867 48.6225 34.74C48.3425 34.9867 48.1758 35.3233 48.1225 35.75H51.1725ZM53.1044 36.22C53.1044 35.6667 53.2177 35.1767 53.4444 34.75C53.6777 34.3233 53.991 33.9933 54.3844 33.76C54.7844 33.52 55.2277 33.4 55.7144 33.4C56.0744 33.4 56.4277 33.48 56.7744 33.64C57.1277 33.7933 57.4077 34 57.6144 34.26V31.6H58.7644V39H57.6144V38.17C57.4277 38.4367 57.1677 38.6567 56.8344 38.83C56.5077 39.0033 56.131 39.09 55.7044 39.09C55.2244 39.09 54.7844 38.97 54.3844 38.73C53.991 38.4833 53.6777 38.1433 53.4444 37.71C53.2177 37.27 53.1044 36.7733 53.1044 36.22ZM57.6144 36.24C57.6144 35.86 57.5344 35.53 57.3744 35.25C57.221 34.97 57.0177 34.7567 56.7644 34.61C56.511 34.4633 56.2377 34.39 55.9444 34.39C55.651 34.39 55.3777 34.4633 55.1244 34.61C54.871 34.75 54.6644 34.96 54.5044 35.24C54.351 35.5133 54.2744 35.84 54.2744 36.22C54.2744 36.6 54.351 36.9333 54.5044 37.22C54.6644 37.5067 54.871 37.7267 55.1244 37.88C55.3844 38.0267 55.6577 38.1 55.9444 38.1C56.2377 38.1 56.511 38.0267 56.7644 37.88C57.0177 37.7333 57.221 37.52 57.3744 37.24C57.5344 36.9533 57.6144 36.62 57.6144 36.24ZM60.8417 32.76C60.6351 32.76 60.4617 32.69 60.3217 32.55C60.1817 32.41 60.1117 32.2367 60.1117 32.03C60.1117 31.8233 60.1817 31.65 60.3217 31.51C60.4617 31.37 60.6351 31.3 60.8417 31.3C61.0417 31.3 61.2117 31.37 61.3517 31.51C61.4917 31.65 61.5617 31.8233 61.5617 32.03C61.5617 32.2367 61.4917 32.41 61.3517 32.55C61.2117 32.69 61.0417 32.76 60.8417 32.76ZM61.4017 33.49V39H60.2617V33.49H61.4017ZM62.5184 36.24C62.5184 35.6733 62.6318 35.1767 62.8584 34.75C63.0918 34.3167 63.4118 33.9833 63.8184 33.75C64.2251 33.5167 64.6918 33.4 65.2184 33.4C65.8851 33.4 66.4351 33.56 66.8684 33.88C67.3084 34.1933 67.6051 34.6433 67.7584 35.23H66.5284C66.4284 34.9567 66.2684 34.7433 66.0484 34.59C65.8284 34.4367 65.5518 34.36 65.2184 34.36C64.7518 34.36 64.3784 34.5267 64.0984 34.86C63.8251 35.1867 63.6884 35.6467 63.6884 36.24C63.6884 36.8333 63.8251 37.2967 64.0984 37.63C64.3784 37.9633 64.7518 38.13 65.2184 38.13C65.8784 38.13 66.3151 37.84 66.5284 37.26H67.7584C67.5984 37.82 67.2984 38.2667 66.8584 38.6C66.4184 38.9267 65.8718 39.09 65.2184 39.09C64.6918 39.09 64.2251 38.9733 63.8184 38.74C63.4118 38.5 63.0918 38.1667 62.8584 37.74C62.6318 37.3067 62.5184 36.8067 62.5184 36.24ZM70.8945 39.09C70.4612 39.09 70.0712 39.0133 69.7245 38.86C69.3845 38.7 69.1145 38.4867 68.9145 38.22C68.7145 37.9467 68.6079 37.6433 68.5945 37.31H69.7745C69.7945 37.5433 69.9045 37.74 70.1045 37.9C70.3112 38.0533 70.5679 38.13 70.8745 38.13C71.1945 38.13 71.4412 38.07 71.6145 37.95C71.7945 37.8233 71.8845 37.6633 71.8845 37.47C71.8845 37.2633 71.7845 37.11 71.5845 37.01C71.3912 36.91 71.0812 36.8 70.6545 36.68C70.2412 36.5667 69.9045 36.4567 69.6445 36.35C69.3845 36.2433 69.1579 36.08 68.9645 35.86C68.7779 35.64 68.6845 35.35 68.6845 34.99C68.6845 34.6967 68.7712 34.43 68.9445 34.19C69.1179 33.9433 69.3645 33.75 69.6845 33.61C70.0112 33.47 70.3845 33.4 70.8045 33.4C71.4312 33.4 71.9345 33.56 72.3145 33.88C72.7012 34.1933 72.9079 34.6233 72.9345 35.17H71.7945C71.7745 34.9233 71.6745 34.7267 71.4945 34.58C71.3145 34.4333 71.0712 34.36 70.7645 34.36C70.4645 34.36 70.2345 34.4167 70.0745 34.53C69.9145 34.6433 69.8345 34.7933 69.8345 34.98C69.8345 35.1267 69.8879 35.25 69.9945 35.35C70.1012 35.45 70.2312 35.53 70.3845 35.59C70.5379 35.6433 70.7645 35.7133 71.0645 35.8C71.4645 35.9067 71.7912 36.0167 72.0445 36.13C72.3045 36.2367 72.5279 36.3967 72.7145 36.61C72.9012 36.8233 72.9979 37.1067 73.0045 37.46C73.0045 37.7733 72.9179 38.0533 72.7445 38.3C72.5712 38.5467 72.3245 38.74 72.0045 38.88C71.6912 39.02 71.3212 39.09 70.8945 39.09Z" fill="#C2C7CD"/>
<path d="M4.07508 94.51C4.07508 93.83 4.23174 93.22 4.54508 92.68C4.86508 92.14 5.29508 91.72 5.83508 91.42C6.38174 91.1133 6.97841 90.96 7.62508 90.96C8.36508 90.96 9.02175 91.1433 9.59508 91.51C10.1751 91.87 10.5951 92.3833 10.8551 93.05H9.48508C9.30508 92.6833 9.05508 92.41 8.73508 92.23C8.41508 92.05 8.04508 91.96 7.62508 91.96C7.16508 91.96 6.75508 92.0633 6.39508 92.27C6.03508 92.4767 5.75174 92.7733 5.54508 93.16C5.34508 93.5467 5.24508 93.9967 5.24508 94.51C5.24508 95.0233 5.34508 95.4733 5.54508 95.86C5.75174 96.2467 6.03508 96.5467 6.39508 96.76C6.75508 96.9667 7.16508 97.07 7.62508 97.07C8.04508 97.07 8.41508 96.98 8.73508 96.8C9.05508 96.62 9.30508 96.3467 9.48508 95.98H10.8551C10.5951 96.6467 10.1751 97.16 9.59508 97.52C9.02175 97.88 8.36508 98.06 7.62508 98.06C6.97174 98.06 6.37508 97.91 5.83508 97.61C5.29508 97.3033 4.86508 96.88 4.54508 96.34C4.23174 95.8 4.07508 95.19 4.07508 94.51ZM14.5795 98.09C14.0595 98.09 13.5895 97.9733 13.1695 97.74C12.7495 97.5 12.4195 97.1667 12.1795 96.74C11.9395 96.3067 11.8195 95.8067 11.8195 95.24C11.8195 94.68 11.9428 94.1833 12.1895 93.75C12.4361 93.3167 12.7728 92.9833 13.1995 92.75C13.6261 92.5167 14.1028 92.4 14.6295 92.4C15.1561 92.4 15.6328 92.5167 16.0595 92.75C16.4861 92.9833 16.8228 93.3167 17.0695 93.75C17.3161 94.1833 17.4395 94.68 17.4395 95.24C17.4395 95.8 17.3128 96.2967 17.0595 96.73C16.8061 97.1633 16.4595 97.5 16.0195 97.74C15.5861 97.9733 15.1061 98.09 14.5795 98.09ZM14.5795 97.1C14.8728 97.1 15.1461 97.03 15.3995 96.89C15.6595 96.75 15.8695 96.54 16.0295 96.26C16.1895 95.98 16.2695 95.64 16.2695 95.24C16.2695 94.84 16.1928 94.5033 16.0395 94.23C15.8861 93.95 15.6828 93.74 15.4295 93.6C15.1761 93.46 14.9028 93.39 14.6095 93.39C14.3161 93.39 14.0428 93.46 13.7895 93.6C13.5428 93.74 13.3461 93.95 13.1995 94.23C13.0528 94.5033 12.9795 94.84 12.9795 95.24C12.9795 95.8333 13.1295 96.2933 13.4295 96.62C13.7361 96.94 14.1195 97.1 14.5795 97.1ZM21.3464 92.4C21.7797 92.4 22.1664 92.49 22.5064 92.67C22.8531 92.85 23.1231 93.1167 23.3164 93.47C23.5097 93.8233 23.6064 94.25 23.6064 94.75V98H22.4764V94.92C22.4764 94.4267 22.3531 94.05 22.1064 93.79C21.8597 93.5233 21.5231 93.39 21.0964 93.39C20.6697 93.39 20.3297 93.5233 20.0764 93.79C19.8297 94.05 19.7064 94.4267 19.7064 94.92V98H18.5664V92.49H19.7064V93.12C19.8931 92.8933 20.1297 92.7167 20.4164 92.59C20.7097 92.4633 21.0197 92.4 21.3464 92.4ZM24.6805 95.24C24.6805 94.6733 24.7939 94.1767 25.0205 93.75C25.2539 93.3167 25.5739 92.9833 25.9805 92.75C26.3872 92.5167 26.8539 92.4 27.3805 92.4C28.0472 92.4 28.5972 92.56 29.0305 92.88C29.4705 93.1933 29.7672 93.6433 29.9205 94.23H28.6905C28.5905 93.9567 28.4305 93.7433 28.2105 93.59C27.9905 93.4367 27.7139 93.36 27.3805 93.36C26.9139 93.36 26.5405 93.5267 26.2605 93.86C25.9872 94.1867 25.8505 94.6467 25.8505 95.24C25.8505 95.8333 25.9872 96.2967 26.2605 96.63C26.5405 96.9633 26.9139 97.13 27.3805 97.13C28.0405 97.13 28.4772 96.84 28.6905 96.26H29.9205C29.7605 96.82 29.4605 97.2667 29.0205 97.6C28.5805 97.9267 28.0339 98.09 27.3805 98.09C26.8539 98.09 26.3872 97.9733 25.9805 97.74C25.5739 97.5 25.2539 97.1667 25.0205 96.74C24.7939 96.3067 24.6805 95.8067 24.6805 95.24ZM33.4466 98.09C32.9266 98.09 32.4566 97.9733 32.0366 97.74C31.6166 97.5 31.2866 97.1667 31.0466 96.74C30.8066 96.3067 30.6866 95.8067 30.6866 95.24C30.6866 94.68 30.81 94.1833 31.0566 93.75C31.3033 93.3167 31.64 92.9833 32.0666 92.75C32.4933 92.5167 32.97 92.4 33.4966 92.4C34.0233 92.4 34.5 92.5167 34.9266 92.75C35.3533 92.9833 35.69 93.3167 35.9366 93.75C36.1833 94.1833 36.3066 94.68 36.3066 95.24C36.3066 95.8 36.18 96.2967 35.9266 96.73C35.6733 97.1633 35.3266 97.5 34.8866 97.74C34.4533 97.9733 33.9733 98.09 33.4466 98.09ZM33.4466 97.1C33.74 97.1 34.0133 97.03 34.2666 96.89C34.5266 96.75 34.7366 96.54 34.8966 96.26C35.0566 95.98 35.1366 95.64 35.1366 95.24C35.1366 94.84 35.06 94.5033 34.9066 94.23C34.7533 93.95 34.55 93.74 34.2966 93.6C34.0433 93.46 33.77 93.39 33.4766 93.39C33.1833 93.39 32.91 93.46 32.6566 93.6C32.41 93.74 32.2133 93.95 32.0666 94.23C31.92 94.5033 31.8466 94.84 31.8466 95.24C31.8466 95.8333 31.9966 96.2933 32.2966 96.62C32.6033 96.94 32.9866 97.1 33.4466 97.1ZM38.5736 90.6V98H37.4336V90.6H38.5736ZM42.4603 98.09C41.9403 98.09 41.4703 97.9733 41.0503 97.74C40.6303 97.5 40.3003 97.1667 40.0603 96.74C39.8203 96.3067 39.7003 95.8067 39.7003 95.24C39.7003 94.68 39.8236 94.1833 40.0703 93.75C40.317 93.3167 40.6536 92.9833 41.0803 92.75C41.507 92.5167 41.9836 92.4 42.5103 92.4C43.037 92.4 43.5136 92.5167 43.9403 92.75C44.367 92.9833 44.7036 93.3167 44.9503 93.75C45.197 94.1833 45.3203 94.68 45.3203 95.24C45.3203 95.8 45.1936 96.2967 44.9403 96.73C44.687 97.1633 44.3403 97.5 43.9003 97.74C43.467 97.9733 42.987 98.09 42.4603 98.09ZM42.4603 97.1C42.7536 97.1 43.027 97.03 43.2803 96.89C43.5403 96.75 43.7503 96.54 43.9103 96.26C44.0703 95.98 44.1503 95.64 44.1503 95.24C44.1503 94.84 44.0736 94.5033 43.9203 94.23C43.767 93.95 43.5636 93.74 43.3103 93.6C43.057 93.46 42.7836 93.39 42.4903 93.39C42.197 93.39 41.9236 93.46 41.6703 93.6C41.4236 93.74 41.227 93.95 41.0803 94.23C40.9336 94.5033 40.8603 94.84 40.8603 95.24C40.8603 95.8333 41.0103 96.2933 41.3103 96.62C41.617 96.94 42.0003 97.1 42.4603 97.1ZM48.6673 92.4C49.0939 92.4 49.4706 92.4867 49.7973 92.66C50.1306 92.8267 50.3906 93.0367 50.5773 93.29V92.49H51.7273V98.09C51.7273 98.5967 51.6206 99.0467 51.4073 99.44C51.1939 99.84 50.8839 100.153 50.4773 100.38C50.0773 100.607 49.5973 100.72 49.0373 100.72C48.2906 100.72 47.6706 100.543 47.1773 100.19C46.6839 99.8433 46.4039 99.37 46.3373 98.77H47.4673C47.5539 99.0567 47.7373 99.2867 48.0173 99.46C48.3039 99.64 48.6439 99.73 49.0373 99.73C49.4973 99.73 49.8673 99.59 50.1473 99.31C50.4339 99.03 50.5773 98.6233 50.5773 98.09V97.17C50.3839 97.43 50.1206 97.65 49.7873 97.83C49.4606 98.0033 49.0873 98.09 48.6673 98.09C48.1873 98.09 47.7473 97.97 47.3473 97.73C46.9539 97.4833 46.6406 97.1433 46.4073 96.71C46.1806 96.27 46.0673 95.7733 46.0673 95.22C46.0673 94.6667 46.1806 94.1767 46.4073 93.75C46.6406 93.3233 46.9539 92.9933 47.3473 92.76C47.7473 92.52 48.1873 92.4 48.6673 92.4ZM50.5773 95.24C50.5773 94.86 50.4973 94.53 50.3373 94.25C50.1839 93.97 49.9806 93.7567 49.7273 93.61C49.4739 93.4633 49.2006 93.39 48.9073 93.39C48.6139 93.39 48.3406 93.4633 48.0873 93.61C47.8339 93.75 47.6273 93.96 47.4673 94.24C47.3139 94.5133 47.2373 94.84 47.2373 95.22C47.2373 95.6 47.3139 95.9333 47.4673 96.22C47.6273 96.5067 47.8339 96.7267 48.0873 96.88C48.3473 97.0267 48.6206 97.1 48.9073 97.1C49.2006 97.1 49.4739 97.0267 49.7273 96.88C49.9806 96.7333 50.1839 96.52 50.3373 96.24C50.4973 95.9533 50.5773 95.62 50.5773 95.24ZM58.1846 92.49L54.8046 100.59H53.6246L54.7446 97.91L52.5746 92.49H53.8446L55.3946 96.69L57.0046 92.49H58.1846Z" fill="#C2C7CD"/>
<path d="M56.6963 145H55.5563L52.1263 139.81V145H50.9863V138.04H52.1263L55.5563 143.22V138.04H56.6963V145ZM63.1834 139.49V145H62.0434V144.35C61.8634 144.577 61.6267 144.757 61.3334 144.89C61.0467 145.017 60.74 145.08 60.4134 145.08C59.98 145.08 59.59 144.99 59.2434 144.81C58.9034 144.63 58.6334 144.363 58.4334 144.01C58.24 143.657 58.1434 143.23 58.1434 142.73V139.49H59.2734V142.56C59.2734 143.053 59.3967 143.433 59.6434 143.7C59.89 143.96 60.2267 144.09 60.6534 144.09C61.08 144.09 61.4167 143.96 61.6634 143.7C61.9167 143.433 62.0434 143.053 62.0434 142.56V139.49H63.1834ZM65.8275 140.29C65.9942 140.01 66.2142 139.793 66.4875 139.64C66.7675 139.48 67.0975 139.4 67.4775 139.4V140.58H67.1875C66.7408 140.58 66.4008 140.693 66.1675 140.92C65.9408 141.147 65.8275 141.54 65.8275 142.1V145H64.6875V139.49H65.8275V140.29ZM70.9154 145.09C70.3954 145.09 69.9254 144.973 69.5054 144.74C69.0854 144.5 68.7554 144.167 68.5154 143.74C68.2754 143.307 68.1554 142.807 68.1554 142.24C68.1554 141.68 68.2787 141.183 68.5254 140.75C68.7721 140.317 69.1087 139.983 69.5354 139.75C69.9621 139.517 70.4387 139.4 70.9654 139.4C71.4921 139.4 71.9687 139.517 72.3954 139.75C72.8221 139.983 73.1587 140.317 73.4054 140.75C73.6521 141.183 73.7754 141.68 73.7754 142.24C73.7754 142.8 73.6487 143.297 73.3954 143.73C73.1421 144.163 72.7954 144.5 72.3554 144.74C71.9221 144.973 71.4421 145.09 70.9154 145.09ZM70.9154 144.1C71.2087 144.1 71.4821 144.03 71.7354 143.89C71.9954 143.75 72.2054 143.54 72.3654 143.26C72.5254 142.98 72.6054 142.64 72.6054 142.24C72.6054 141.84 72.5287 141.503 72.3754 141.23C72.2221 140.95 72.0187 140.74 71.7654 140.6C71.5121 140.46 71.2387 140.39 70.9454 140.39C70.6521 140.39 70.3787 140.46 70.1254 140.6C69.8787 140.74 69.6821 140.95 69.5354 141.23C69.3887 141.503 69.3154 141.84 69.3154 142.24C69.3154 142.833 69.4654 143.293 69.7654 143.62C70.0721 143.94 70.4554 144.1 70.9154 144.1ZM76.0423 137.6V145H74.9023V137.6H76.0423ZM79.9291 145.09C79.4091 145.09 78.9391 144.973 78.5191 144.74C78.0991 144.5 77.7691 144.167 77.5291 143.74C77.2891 143.307 77.1691 142.807 77.1691 142.24C77.1691 141.68 77.2924 141.183 77.5391 140.75C77.7857 140.317 78.1224 139.983 78.5491 139.75C78.9757 139.517 79.4524 139.4 79.9791 139.4C80.5057 139.4 80.9824 139.517 81.4091 139.75C81.8357 139.983 82.1724 140.317 82.4191 140.75C82.6657 141.183 82.7891 141.68 82.7891 142.24C82.7891 142.8 82.6624 143.297 82.4091 143.73C82.1557 144.163 81.8091 144.5 81.3691 144.74C80.9357 144.973 80.4557 145.09 79.9291 145.09ZM79.9291 144.1C80.2224 144.1 80.4957 144.03 80.7491 143.89C81.0091 143.75 81.2191 143.54 81.3791 143.26C81.5391 142.98 81.6191 142.64 81.6191 142.24C81.6191 141.84 81.5424 141.503 81.3891 141.23C81.2357 140.95 81.0324 140.74 80.7791 140.6C80.5257 140.46 80.2524 140.39 79.9591 140.39C79.6657 140.39 79.3924 140.46 79.1391 140.6C78.8924 140.74 78.6957 140.95 78.5491 141.23C78.4024 141.503 78.3291 141.84 78.3291 142.24C78.3291 142.833 78.4791 143.293 78.7791 143.62C79.0857 143.94 79.4691 144.1 79.9291 144.1ZM86.136 139.4C86.5627 139.4 86.9393 139.487 87.266 139.66C87.5993 139.827 87.8593 140.037 88.046 140.29V139.49H89.196V145.09C89.196 145.597 89.0893 146.047 88.876 146.44C88.6627 146.84 88.3527 147.153 87.946 147.38C87.546 147.607 87.066 147.72 86.506 147.72C85.7593 147.72 85.1393 147.543 84.646 147.19C84.1527 146.843 83.8727 146.37 83.806 145.77H84.936C85.0227 146.057 85.206 146.287 85.486 146.46C85.7727 146.64 86.1127 146.73 86.506 146.73C86.966 146.73 87.336 146.59 87.616 146.31C87.9027 146.03 88.046 145.623 88.046 145.09V144.17C87.8527 144.43 87.5893 144.65 87.256 144.83C86.9293 145.003 86.556 145.09 86.136 145.09C85.656 145.09 85.216 144.97 84.816 144.73C84.4227 144.483 84.1093 144.143 83.876 143.71C83.6493 143.27 83.536 142.773 83.536 142.22C83.536 141.667 83.6493 141.177 83.876 140.75C84.1093 140.323 84.4227 139.993 84.816 139.76C85.216 139.52 85.656 139.4 86.136 139.4ZM88.046 142.24C88.046 141.86 87.966 141.53 87.806 141.25C87.6527 140.97 87.4493 140.757 87.196 140.61C86.9427 140.463 86.6693 140.39 86.376 140.39C86.0827 140.39 85.8093 140.463 85.556 140.61C85.3027 140.75 85.096 140.96 84.936 141.24C84.7827 141.513 84.706 141.84 84.706 142.22C84.706 142.6 84.7827 142.933 84.936 143.22C85.096 143.507 85.3027 143.727 85.556 143.88C85.816 144.027 86.0893 144.1 86.376 144.1C86.6693 144.1 86.9427 144.027 87.196 143.88C87.4493 143.733 87.6527 143.52 87.806 143.24C87.966 142.953 88.046 142.62 88.046 142.24ZM95.6534 139.49L92.2734 147.59H91.0934L92.2134 144.91L90.0434 139.49H91.3134L92.8634 143.69L94.4734 139.49H95.6534Z" fill="#C2C7CD"/>
<path d="M181.834 33.05C182.574 33.05 183.221 33.1933 183.774 33.48C184.334 33.76 184.764 34.1667 185.064 34.7C185.371 35.2267 185.524 35.8433 185.524 36.55C185.524 37.2567 185.371 37.87 185.064 38.39C184.764 38.91 184.334 39.31 183.774 39.59C183.221 39.8633 182.574 40 181.834 40H179.564V33.05H181.834ZM181.834 39.07C182.648 39.07 183.271 38.85 183.704 38.41C184.138 37.97 184.354 37.35 184.354 36.55C184.354 35.7433 184.138 35.1133 183.704 34.66C183.271 34.2067 182.648 33.98 181.834 33.98H180.704V39.07H181.834ZM191.704 37.11C191.704 37.3167 191.691 37.5033 191.664 37.67H187.454C187.488 38.11 187.651 38.4633 187.944 38.73C188.238 38.9967 188.598 39.13 189.024 39.13C189.638 39.13 190.071 38.8733 190.324 38.36H191.554C191.388 38.8667 191.084 39.2833 190.644 39.61C190.211 39.93 189.671 40.09 189.024 40.09C188.498 40.09 188.024 39.9733 187.604 39.74C187.191 39.5 186.864 39.1667 186.624 38.74C186.391 38.3067 186.274 37.8067 186.274 37.24C186.274 36.6733 186.388 36.1767 186.614 35.75C186.848 35.3167 187.171 34.9833 187.584 34.75C188.004 34.5167 188.484 34.4 189.024 34.4C189.544 34.4 190.008 34.5133 190.414 34.74C190.821 34.9667 191.138 35.2867 191.364 35.7C191.591 36.1067 191.704 36.5767 191.704 37.11ZM190.514 36.75C190.508 36.33 190.358 35.9933 190.064 35.74C189.771 35.4867 189.408 35.36 188.974 35.36C188.581 35.36 188.244 35.4867 187.964 35.74C187.684 35.9867 187.518 36.3233 187.464 36.75H190.514ZM193.966 35.29C194.133 35.01 194.353 34.7933 194.626 34.64C194.906 34.48 195.236 34.4 195.616 34.4V35.58H195.326C194.88 35.58 194.54 35.6933 194.306 35.92C194.08 36.1467 193.966 36.54 193.966 37.1V40H192.826V34.49H193.966V35.29ZM203.334 34.4C203.767 34.4 204.154 34.49 204.494 34.67C204.841 34.85 205.111 35.1167 205.304 35.47C205.504 35.8233 205.604 36.25 205.604 36.75V40H204.474V36.92C204.474 36.4267 204.351 36.05 204.104 35.79C203.857 35.5233 203.521 35.39 203.094 35.39C202.667 35.39 202.327 35.5233 202.074 35.79C201.827 36.05 201.704 36.4267 201.704 36.92V40H200.574V36.92C200.574 36.4267 200.451 36.05 200.204 35.79C199.957 35.5233 199.621 35.39 199.194 35.39C198.767 35.39 198.427 35.5233 198.174 35.79C197.927 36.05 197.804 36.4267 197.804 36.92V40H196.664V34.49H197.804V35.12C197.991 34.8933 198.227 34.7167 198.514 34.59C198.801 34.4633 199.107 34.4 199.434 34.4C199.874 34.4 200.267 34.4933 200.614 34.68C200.961 34.8667 201.227 35.1367 201.414 35.49C201.581 35.1567 201.841 34.8933 202.194 34.7C202.547 34.5 202.927 34.4 203.334 34.4ZM212.105 37.11C212.105 37.3167 212.091 37.5033 212.065 37.67H207.855C207.888 38.11 208.051 38.4633 208.345 38.73C208.638 38.9967 208.998 39.13 209.425 39.13C210.038 39.13 210.471 38.8733 210.725 38.36H211.955C211.788 38.8667 211.485 39.2833 211.045 39.61C210.611 39.93 210.071 40.09 209.425 40.09C208.898 40.09 208.425 39.9733 208.005 39.74C207.591 39.5 207.265 39.1667 207.025 38.74C206.791 38.3067 206.675 37.8067 206.675 37.24C206.675 36.6733 206.788 36.1767 207.015 35.75C207.248 35.3167 207.571 34.9833 207.985 34.75C208.405 34.5167 208.885 34.4 209.425 34.4C209.945 34.4 210.408 34.5133 210.815 34.74C211.221 34.9667 211.538 35.2867 211.765 35.7C211.991 36.1067 212.105 36.5767 212.105 37.11ZM210.915 36.75C210.908 36.33 210.758 35.9933 210.465 35.74C210.171 35.4867 209.808 35.36 209.375 35.36C208.981 35.36 208.645 35.4867 208.365 35.74C208.085 35.9867 207.918 36.3233 207.865 36.75H210.915ZM214.557 35.42V38.47C214.557 38.6767 214.603 38.8267 214.697 38.92C214.797 39.0067 214.963 39.05 215.197 39.05H215.897V40H214.997C214.483 40 214.09 39.88 213.817 39.64C213.543 39.4 213.407 39.01 213.407 38.47V35.42H212.757V34.49H213.407V33.12H214.557V34.49H215.897V35.42H214.557ZM219.337 40.09C218.817 40.09 218.347 39.9733 217.927 39.74C217.507 39.5 217.177 39.1667 216.937 38.74C216.697 38.3067 216.577 37.8067 216.577 37.24C216.577 36.68 216.701 36.1833 216.947 35.75C217.194 35.3167 217.531 34.9833 217.957 34.75C218.384 34.5167 218.861 34.4 219.387 34.4C219.914 34.4 220.391 34.5167 220.817 34.75C221.244 34.9833 221.581 35.3167 221.827 35.75C222.074 36.1833 222.197 36.68 222.197 37.24C222.197 37.8 222.071 38.2967 221.817 38.73C221.564 39.1633 221.217 39.5 220.777 39.74C220.344 39.9733 219.864 40.09 219.337 40.09ZM219.337 39.1C219.631 39.1 219.904 39.03 220.157 38.89C220.417 38.75 220.627 38.54 220.787 38.26C220.947 37.98 221.027 37.64 221.027 37.24C221.027 36.84 220.951 36.5033 220.797 36.23C220.644 35.95 220.441 35.74 220.187 35.6C219.934 35.46 219.661 35.39 219.367 35.39C219.074 35.39 218.801 35.46 218.547 35.6C218.301 35.74 218.104 35.95 217.957 36.23C217.811 36.5033 217.737 36.84 217.737 37.24C217.737 37.8333 217.887 38.2933 218.187 38.62C218.494 38.94 218.877 39.1 219.337 39.1ZM224.464 32.6V40H223.324V32.6H224.464ZM228.351 40.09C227.831 40.09 227.361 39.9733 226.941 39.74C226.521 39.5 226.191 39.1667 225.951 38.74C225.711 38.3067 225.591 37.8067 225.591 37.24C225.591 36.68 225.714 36.1833 225.961 35.75C226.208 35.3167 226.544 34.9833 226.971 34.75C227.398 34.5167 227.874 34.4 228.401 34.4C228.928 34.4 229.404 34.5167 229.831 34.75C230.258 34.9833 230.594 35.3167 230.841 35.75C231.088 36.1833 231.211 36.68 231.211 37.24C231.211 37.8 231.084 38.2967 230.831 38.73C230.578 39.1633 230.231 39.5 229.791 39.74C229.358 39.9733 228.878 40.09 228.351 40.09ZM228.351 39.1C228.644 39.1 228.918 39.03 229.171 38.89C229.431 38.75 229.641 38.54 229.801 38.26C229.961 37.98 230.041 37.64 230.041 37.24C230.041 36.84 229.964 36.5033 229.811 36.23C229.658 35.95 229.454 35.74 229.201 35.6C228.948 35.46 228.674 35.39 228.381 35.39C228.088 35.39 227.814 35.46 227.561 35.6C227.314 35.74 227.118 35.95 226.971 36.23C226.824 36.5033 226.751 36.84 226.751 37.24C226.751 37.8333 226.901 38.2933 227.201 38.62C227.508 38.94 227.891 39.1 228.351 39.1ZM234.558 34.4C234.985 34.4 235.361 34.4867 235.688 34.66C236.021 34.8267 236.281 35.0367 236.468 35.29V34.49H237.618V40.09C237.618 40.5967 237.511 41.0467 237.298 41.44C237.085 41.84 236.775 42.1533 236.368 42.38C235.968 42.6067 235.488 42.72 234.928 42.72C234.181 42.72 233.561 42.5433 233.068 42.19C232.575 41.8433 232.295 41.37 232.228 40.77H233.358C233.445 41.0567 233.628 41.2867 233.908 41.46C234.195 41.64 234.535 41.73 234.928 41.73C235.388 41.73 235.758 41.59 236.038 41.31C236.325 41.03 236.468 40.6233 236.468 40.09V39.17C236.275 39.43 236.011 39.65 235.678 39.83C235.351 40.0033 234.978 40.09 234.558 40.09C234.078 40.09 233.638 39.97 233.238 39.73C232.845 39.4833 232.531 39.1433 232.298 38.71C232.071 38.27 231.958 37.7733 231.958 37.22C231.958 36.6667 232.071 36.1767 232.298 35.75C232.531 35.3233 232.845 34.9933 233.238 34.76C233.638 34.52 234.078 34.4 234.558 34.4ZM236.468 37.24C236.468 36.86 236.388 36.53 236.228 36.25C236.075 35.97 235.871 35.7567 235.618 35.61C235.365 35.4633 235.091 35.39 234.798 35.39C234.505 35.39 234.231 35.4633 233.978 35.61C233.725 35.75 233.518 35.96 233.358 36.24C233.205 36.5133 233.128 36.84 233.128 37.22C233.128 37.6 233.205 37.9333 233.358 38.22C233.518 38.5067 233.725 38.7267 233.978 38.88C234.238 39.0267 234.511 39.1 234.798 39.1C235.091 39.1 235.365 39.0267 235.618 38.88C235.871 38.7333 236.075 38.52 236.228 38.24C236.388 37.9533 236.468 37.62 236.468 37.24ZM244.075 34.49L240.695 42.59H239.515L240.635 39.91L238.465 34.49H239.735L241.285 38.69L242.895 34.49H244.075Z" fill="#C2C7CD"/>
<path d="M196.214 97.07C195.747 97.07 195.327 96.99 194.954 96.83C194.58 96.6633 194.287 96.43 194.074 96.13C193.86 95.83 193.754 95.48 193.754 95.08H194.974C195 95.38 195.117 95.6267 195.324 95.82C195.537 96.0133 195.834 96.11 196.214 96.11C196.607 96.11 196.914 96.0167 197.134 95.83C197.354 95.6367 197.464 95.39 197.464 95.09C197.464 94.8567 197.394 94.6667 197.254 94.52C197.12 94.3733 196.95 94.26 196.744 94.18C196.544 94.1 196.264 94.0133 195.904 93.92C195.45 93.8 195.08 93.68 194.794 93.56C194.514 93.4333 194.274 93.24 194.074 92.98C193.874 92.72 193.774 92.3733 193.774 91.94C193.774 91.54 193.874 91.19 194.074 90.89C194.274 90.59 194.554 90.36 194.914 90.2C195.274 90.04 195.69 89.96 196.164 89.96C196.837 89.96 197.387 90.13 197.814 90.47C198.247 90.8033 198.487 91.2633 198.534 91.85H197.274C197.254 91.5967 197.134 91.38 196.914 91.2C196.694 91.02 196.404 90.93 196.044 90.93C195.717 90.93 195.45 91.0133 195.244 91.18C195.037 91.3467 194.934 91.5867 194.934 91.9C194.934 92.1133 194.997 92.29 195.124 92.43C195.257 92.5633 195.424 92.67 195.624 92.75C195.824 92.83 196.097 92.9167 196.444 93.01C196.904 93.1367 197.277 93.2633 197.564 93.39C197.857 93.5167 198.104 93.7133 198.304 93.98C198.51 94.24 198.614 94.59 198.614 95.03C198.614 95.3833 198.517 95.7167 198.324 96.03C198.137 96.3433 197.86 96.5967 197.494 96.79C197.134 96.9767 196.707 97.07 196.214 97.07ZM205.009 94.11C205.009 94.3167 204.996 94.5033 204.969 94.67H200.759C200.792 95.11 200.956 95.4633 201.249 95.73C201.542 95.9967 201.902 96.13 202.329 96.13C202.942 96.13 203.376 95.8733 203.629 95.36H204.859C204.692 95.8667 204.389 96.2833 203.949 96.61C203.516 96.93 202.976 97.09 202.329 97.09C201.802 97.09 201.329 96.9733 200.909 96.74C200.496 96.5 200.169 96.1667 199.929 95.74C199.696 95.3067 199.579 94.8067 199.579 94.24C199.579 93.6733 199.692 93.1767 199.919 92.75C200.152 92.3167 200.476 91.9833 200.889 91.75C201.309 91.5167 201.789 91.4 202.329 91.4C202.849 91.4 203.312 91.5133 203.719 91.74C204.126 91.9667 204.442 92.2867 204.669 92.7C204.896 93.1067 205.009 93.5767 205.009 94.11ZM203.819 93.75C203.812 93.33 203.662 92.9933 203.369 92.74C203.076 92.4867 202.712 92.36 202.279 92.36C201.886 92.36 201.549 92.4867 201.269 92.74C200.989 92.9867 200.822 93.3233 200.769 93.75H203.819ZM207.271 92.29C207.438 92.01 207.658 91.7933 207.931 91.64C208.211 91.48 208.541 91.4 208.921 91.4V92.58H208.631C208.184 92.58 207.844 92.6933 207.611 92.92C207.384 93.1467 207.271 93.54 207.271 94.1V97H206.131V91.49H207.271V92.29ZM212.189 91.4C212.615 91.4 212.992 91.4867 213.319 91.66C213.652 91.8267 213.912 92.0367 214.099 92.29V91.49H215.249V97.09C215.249 97.5967 215.142 98.0467 214.929 98.44C214.715 98.84 214.405 99.1533 213.999 99.38C213.599 99.6067 213.119 99.72 212.559 99.72C211.812 99.72 211.192 99.5433 210.699 99.19C210.205 98.8433 209.925 98.37 209.859 97.77H210.989C211.075 98.0567 211.259 98.2867 211.539 98.46C211.825 98.64 212.165 98.73 212.559 98.73C213.019 98.73 213.389 98.59 213.669 98.31C213.955 98.03 214.099 97.6233 214.099 97.09V96.17C213.905 96.43 213.642 96.65 213.309 96.83C212.982 97.0033 212.609 97.09 212.189 97.09C211.709 97.09 211.269 96.97 210.869 96.73C210.475 96.4833 210.162 96.1433 209.929 95.71C209.702 95.27 209.589 94.7733 209.589 94.22C209.589 93.6667 209.702 93.1767 209.929 92.75C210.162 92.3233 210.475 91.9933 210.869 91.76C211.269 91.52 211.709 91.4 212.189 91.4ZM214.099 94.24C214.099 93.86 214.019 93.53 213.859 93.25C213.705 92.97 213.502 92.7567 213.249 92.61C212.995 92.4633 212.722 92.39 212.429 92.39C212.135 92.39 211.862 92.4633 211.609 92.61C211.355 92.75 211.149 92.96 210.989 93.24C210.835 93.5133 210.759 93.84 210.759 94.22C210.759 94.6 210.835 94.9333 210.989 95.22C211.149 95.5067 211.355 95.7267 211.609 95.88C211.869 96.0267 212.142 96.1 212.429 96.1C212.722 96.1 212.995 96.0267 213.249 95.88C213.502 95.7333 213.705 95.52 213.859 95.24C214.019 94.9533 214.099 94.62 214.099 94.24ZM221.796 94.11C221.796 94.3167 221.783 94.5033 221.756 94.67H217.546C217.579 95.11 217.743 95.4633 218.036 95.73C218.329 95.9967 218.689 96.13 219.116 96.13C219.729 96.13 220.163 95.8733 220.416 95.36H221.646C221.479 95.8667 221.176 96.2833 220.736 96.61C220.303 96.93 219.763 97.09 219.116 97.09C218.589 97.09 218.116 96.9733 217.696 96.74C217.283 96.5 216.956 96.1667 216.716 95.74C216.483 95.3067 216.366 94.8067 216.366 94.24C216.366 93.6733 216.479 93.1767 216.706 92.75C216.939 92.3167 217.263 91.9833 217.676 91.75C218.096 91.5167 218.576 91.4 219.116 91.4C219.636 91.4 220.099 91.5133 220.506 91.74C220.913 91.9667 221.229 92.2867 221.456 92.7C221.683 93.1067 221.796 93.5767 221.796 94.11ZM220.606 93.75C220.599 93.33 220.449 92.9933 220.156 92.74C219.863 92.4867 219.499 92.36 219.066 92.36C218.673 92.36 218.336 92.4867 218.056 92.74C217.776 92.9867 217.609 93.3233 217.556 93.75H220.606ZM224.058 92.29C224.225 92.01 224.445 91.7933 224.718 91.64C224.998 91.48 225.328 91.4 225.708 91.4V92.58H225.418C224.971 92.58 224.631 92.6933 224.398 92.92C224.171 93.1467 224.058 93.54 224.058 94.1V97H222.918V91.49H224.058V92.29ZM231.716 91.49L228.336 99.59H227.156L228.276 96.91L226.106 91.49H227.376L228.926 95.69L230.536 91.49H231.716Z" fill="#C2C7CD"/>
<path d="M162.575 143.05C162.395 142.703 162.145 142.443 161.825 142.27C161.505 142.09 161.135 142 160.715 142C160.255 142 159.845 142.103 159.485 142.31C159.125 142.517 158.842 142.81 158.635 143.19C158.435 143.57 158.335 144.01 158.335 144.51C158.335 145.01 158.435 145.453 158.635 145.84C158.842 146.22 159.125 146.513 159.485 146.72C159.845 146.927 160.255 147.03 160.715 147.03C161.335 147.03 161.838 146.857 162.225 146.51C162.612 146.163 162.848 145.693 162.935 145.1H160.325V144.19H164.155V145.08C164.082 145.62 163.888 146.117 163.575 146.57C163.268 147.023 162.865 147.387 162.365 147.66C161.872 147.927 161.322 148.06 160.715 148.06C160.062 148.06 159.465 147.91 158.925 147.61C158.385 147.303 157.955 146.88 157.635 146.34C157.322 145.8 157.165 145.19 157.165 144.51C157.165 143.83 157.322 143.22 157.635 142.68C157.955 142.14 158.385 141.72 158.925 141.42C159.472 141.113 160.068 140.96 160.715 140.96C161.455 140.96 162.112 141.143 162.685 141.51C163.265 141.87 163.685 142.383 163.945 143.05H162.575ZM170.239 142.49L166.859 150.59H165.679L166.799 147.91L164.629 142.49H165.899L167.449 146.69L169.059 142.49H170.239ZM173.88 142.4C174.313 142.4 174.7 142.49 175.04 142.67C175.386 142.85 175.656 143.117 175.85 143.47C176.043 143.823 176.14 144.25 176.14 144.75V148H175.01V144.92C175.01 144.427 174.886 144.05 174.64 143.79C174.393 143.523 174.056 143.39 173.63 143.39C173.203 143.39 172.863 143.523 172.61 143.79C172.363 144.05 172.24 144.427 172.24 144.92V148H171.1V142.49H172.24V143.12C172.426 142.893 172.663 142.717 172.95 142.59C173.243 142.463 173.553 142.4 173.88 142.4ZM179.984 148.09C179.464 148.09 178.994 147.973 178.574 147.74C178.154 147.5 177.824 147.167 177.584 146.74C177.344 146.307 177.224 145.807 177.224 145.24C177.224 144.68 177.347 144.183 177.594 143.75C177.84 143.317 178.177 142.983 178.604 142.75C179.03 142.517 179.507 142.4 180.034 142.4C180.56 142.4 181.037 142.517 181.464 142.75C181.89 142.983 182.227 143.317 182.474 143.75C182.72 144.183 182.844 144.68 182.844 145.24C182.844 145.8 182.717 146.297 182.464 146.73C182.21 147.163 181.864 147.5 181.424 147.74C180.99 147.973 180.51 148.09 179.984 148.09ZM179.984 147.1C180.277 147.1 180.55 147.03 180.804 146.89C181.064 146.75 181.274 146.54 181.434 146.26C181.594 145.98 181.674 145.64 181.674 145.24C181.674 144.84 181.597 144.503 181.444 144.23C181.29 143.95 181.087 143.74 180.834 143.6C180.58 143.46 180.307 143.39 180.014 143.39C179.72 143.39 179.447 143.46 179.194 143.6C178.947 143.74 178.75 143.95 178.604 144.23C178.457 144.503 178.384 144.84 178.384 145.24C178.384 145.833 178.534 146.293 178.834 146.62C179.14 146.94 179.524 147.1 179.984 147.1ZM183.591 145.24C183.591 144.673 183.704 144.177 183.931 143.75C184.164 143.317 184.484 142.983 184.891 142.75C185.297 142.517 185.764 142.4 186.291 142.4C186.957 142.4 187.507 142.56 187.941 142.88C188.381 143.193 188.677 143.643 188.831 144.23H187.601C187.501 143.957 187.341 143.743 187.121 143.59C186.901 143.437 186.624 143.36 186.291 143.36C185.824 143.36 185.451 143.527 185.171 143.86C184.897 144.187 184.761 144.647 184.761 145.24C184.761 145.833 184.897 146.297 185.171 146.63C185.451 146.963 185.824 147.13 186.291 147.13C186.951 147.13 187.387 146.84 187.601 146.26H188.831C188.671 146.82 188.371 147.267 187.931 147.6C187.491 147.927 186.944 148.09 186.291 148.09C185.764 148.09 185.297 147.973 184.891 147.74C184.484 147.5 184.164 147.167 183.931 146.74C183.704 146.307 183.591 145.807 183.591 145.24ZM192.357 148.09C191.837 148.09 191.367 147.973 190.947 147.74C190.527 147.5 190.197 147.167 189.957 146.74C189.717 146.307 189.597 145.807 189.597 145.24C189.597 144.68 189.72 144.183 189.967 143.75C190.213 143.317 190.55 142.983 190.977 142.75C191.403 142.517 191.88 142.4 192.407 142.4C192.933 142.4 193.41 142.517 193.837 142.75C194.263 142.983 194.6 143.317 194.847 143.75C195.093 144.183 195.217 144.68 195.217 145.24C195.217 145.8 195.09 146.297 194.837 146.73C194.583 147.163 194.237 147.5 193.797 147.74C193.363 147.973 192.883 148.09 192.357 148.09ZM192.357 147.1C192.65 147.1 192.923 147.03 193.177 146.89C193.437 146.75 193.647 146.54 193.807 146.26C193.967 145.98 194.047 145.64 194.047 145.24C194.047 144.84 193.97 144.503 193.817 144.23C193.663 143.95 193.46 143.74 193.207 143.6C192.953 143.46 192.68 143.39 192.387 143.39C192.093 143.39 191.82 143.46 191.567 143.6C191.32 143.74 191.123 143.95 190.977 144.23C190.83 144.503 190.757 144.84 190.757 145.24C190.757 145.833 190.907 146.293 191.207 146.62C191.513 146.94 191.897 147.1 192.357 147.1ZM197.484 140.6V148H196.344V140.6H197.484ZM201.37 148.09C200.85 148.09 200.38 147.973 199.96 147.74C199.54 147.5 199.21 147.167 198.97 146.74C198.73 146.307 198.61 145.807 198.61 145.24C198.61 144.68 198.734 144.183 198.98 143.75C199.227 143.317 199.564 142.983 199.99 142.75C200.417 142.517 200.894 142.4 201.42 142.4C201.947 142.4 202.424 142.517 202.85 142.75C203.277 142.983 203.614 143.317 203.86 143.75C204.107 144.183 204.23 144.68 204.23 145.24C204.23 145.8 204.104 146.297 203.85 146.73C203.597 147.163 203.25 147.5 202.81 147.74C202.377 147.973 201.897 148.09 201.37 148.09ZM201.37 147.1C201.664 147.1 201.937 147.03 202.19 146.89C202.45 146.75 202.66 146.54 202.82 146.26C202.98 145.98 203.06 145.64 203.06 145.24C203.06 144.84 202.984 144.503 202.83 144.23C202.677 143.95 202.474 143.74 202.22 143.6C201.967 143.46 201.694 143.39 201.4 143.39C201.107 143.39 200.834 143.46 200.58 143.6C200.334 143.74 200.137 143.95 199.99 144.23C199.844 144.503 199.77 144.84 199.77 145.24C199.77 145.833 199.92 146.293 200.22 146.62C200.527 146.94 200.91 147.1 201.37 147.1ZM207.577 142.4C208.004 142.4 208.381 142.487 208.707 142.66C209.041 142.827 209.301 143.037 209.487 143.29V142.49H210.637V148.09C210.637 148.597 210.531 149.047 210.317 149.44C210.104 149.84 209.794 150.153 209.387 150.38C208.987 150.607 208.507 150.72 207.947 150.72C207.201 150.72 206.581 150.543 206.087 150.19C205.594 149.843 205.314 149.37 205.247 148.77H206.377C206.464 149.057 206.647 149.287 206.927 149.46C207.214 149.64 207.554 149.73 207.947 149.73C208.407 149.73 208.777 149.59 209.057 149.31C209.344 149.03 209.487 148.623 209.487 148.09V147.17C209.294 147.43 209.031 147.65 208.697 147.83C208.371 148.003 207.997 148.09 207.577 148.09C207.097 148.09 206.657 147.97 206.257 147.73C205.864 147.483 205.551 147.143 205.317 146.71C205.091 146.27 204.977 145.773 204.977 145.22C204.977 144.667 205.091 144.177 205.317 143.75C205.551 143.323 205.864 142.993 206.257 142.76C206.657 142.52 207.097 142.4 207.577 142.4ZM209.487 145.24C209.487 144.86 209.407 144.53 209.247 144.25C209.094 143.97 208.891 143.757 208.637 143.61C208.384 143.463 208.111 143.39 207.817 143.39C207.524 143.39 207.251 143.463 206.997 143.61C206.744 143.75 206.537 143.96 206.377 144.24C206.224 144.513 206.147 144.84 206.147 145.22C206.147 145.6 206.224 145.933 206.377 146.22C206.537 146.507 206.744 146.727 206.997 146.88C207.257 147.027 207.531 147.1 207.817 147.1C208.111 147.1 208.384 147.027 208.637 146.88C208.891 146.733 209.094 146.52 209.247 146.24C209.407 145.953 209.487 145.62 209.487 145.24ZM217.095 142.49L213.715 150.59H212.535L213.655 147.91L211.485 142.49H212.755L214.305 146.69L215.915 142.49H217.095Z" fill="#C2C7CD"/>
<path d="M95.5073 137.096C95.0913 137.096 94.7553 136.984 94.4993 136.76C94.2513 136.528 94.1273 136.236 94.1273 135.884C94.1273 135.532 94.2513 135.24 94.4993 135.008C94.7553 134.776 95.0913 134.66 95.5073 134.66C95.9153 134.66 96.2433 134.776 96.4913 135.008C96.7473 135.24 96.8753 135.532 96.8753 135.884C96.8753 136.228 96.7473 136.516 96.4913 136.748C96.2433 136.98 95.9153 137.096 95.5073 137.096Z" fill="#C2C7CD"/>
<path d="M64.5073 96.096C64.0913 96.096 63.7553 95.984 63.4993 95.76C63.2513 95.528 63.1273 95.236 63.1273 94.884C63.1273 94.532 63.2513 94.24 63.4993 94.008C63.7553 93.776 64.0913 93.66 64.5073 93.66C64.9153 93.66 65.2433 93.776 65.4913 94.008C65.7473 94.24 65.8753 94.532 65.8753 94.884C65.8753 95.228 65.7473 95.516 65.4913 95.748C65.2433 95.98 64.9153 96.096 64.5073 96.096Z" fill="#C2C7CD"/>
<path d="M150.507 138.096C150.091 138.096 149.755 137.984 149.499 137.76C149.251 137.528 149.127 137.236 149.127 136.884C149.127 136.532 149.251 136.24 149.499 136.008C149.755 135.776 150.091 135.66 150.507 135.66C150.915 135.66 151.243 135.776 151.491 136.008C151.747 136.24 151.875 136.532 151.875 136.884C151.875 137.228 151.747 137.516 151.491 137.748C151.243 137.98 150.915 138.096 150.507 138.096Z" fill="#C2C7CD"/>
<path d="M184.507 97.096C184.091 97.096 183.755 96.984 183.499 96.76C183.251 96.528 183.127 96.236 183.127 95.884C183.127 95.532 183.251 95.24 183.499 95.008C183.755 94.776 184.091 94.66 184.507 94.66C184.915 94.66 185.243 94.776 185.491 95.008C185.747 95.24 185.875 95.532 185.875 95.884C185.875 96.228 185.747 96.516 185.491 96.748C185.243 96.98 184.915 97.096 184.507 97.096Z" fill="#C2C7CD"/>
<path d="M75.5073 43.096C75.0913 43.096 74.7553 42.984 74.4993 42.76C74.2513 42.528 74.1273 42.236 74.1273 41.884C74.1273 41.532 74.2513 41.24 74.4993 41.008C74.7553 40.776 75.0913 40.66 75.5073 40.66C75.9153 40.66 76.2433 40.776 76.4913 41.008C76.7473 41.24 76.8753 41.532 76.8753 41.884C76.8753 42.228 76.7473 42.516 76.4913 42.748C76.2433 42.98 75.9153 43.096 75.5073 43.096Z" fill="#C2C7CD"/>
<path d="M124.507 19.096C124.091 19.096 123.755 18.984 123.499 18.76C123.251 18.528 123.127 18.236 123.127 17.884C123.127 17.532 123.251 17.24 123.499 17.008C123.755 16.776 124.091 16.66 124.507 16.66C124.915 16.66 125.243 16.776 125.491 17.008C125.747 17.24 125.875 17.532 125.875 17.884C125.875 18.228 125.747 18.516 125.491 18.748C125.243 18.98 124.915 19.096 124.507 19.096Z" fill="#C2C7CD"/>
<path d="M173.507 43.096C173.091 43.096 172.755 42.984 172.499 42.76C172.251 42.528 172.127 42.236 172.127 41.884C172.127 41.532 172.251 41.24 172.499 41.008C172.755 40.776 173.091 40.66 173.507 40.66C173.915 40.66 174.243 40.776 174.491 41.008C174.747 41.24 174.875 41.532 174.875 41.884C174.875 42.228 174.747 42.516 174.491 42.748C174.243 42.98 173.915 43.096 173.507 43.096Z" fill="#C2C7CD"/>
</svg>
