<svg width="137" height="137" viewBox="0 0 137 137" fill="none" xmlns="http://www.w3.org/2000/svg">
<path d="M116.152 126.484C126.287 116.537 133.112 103.69 135.765 89.5676C138.417 75.4449 136.777 60.6807 131.052 47.142C125.327 33.6034 115.775 21.8984 103.602 13.5072C91.4298 5.11598 77.1844 0.415444 62.6674 0L62.9351 21.1348C73.2619 21.4303 83.3955 24.7741 92.0545 30.7433C100.713 36.7125 107.509 45.039 111.581 54.6698C115.654 64.3007 116.82 74.8034 114.934 84.8497C113.047 94.8961 108.192 104.035 100.982 111.111L116.152 126.484Z" fill="#0087FE"/>
<path d="M0.618308 88.6057C3.08908 99.3137 8.60531 109.232 16.5796 117.303C24.554 125.375 34.6879 131.299 45.9023 134.444C57.1168 137.588 68.992 137.836 80.2635 135.161C91.5349 132.486 101.781 126.988 109.91 119.253L101.775 111.749C95.0758 118.125 86.6318 122.656 77.3425 124.86C68.0531 127.065 58.2663 126.861 49.0239 124.269C39.7816 121.677 31.4298 116.795 24.8578 110.143C18.2858 103.491 13.7396 95.3167 11.7034 86.4918L0.618308 88.6057Z" fill="#1BE0D3"/>
<path d="M30.7251 20.3451C19.626 27.4552 10.884 37.6807 5.59941 49.7346C0.314817 61.7885 -1.27618 75.132 1.02669 88.0856L11.1961 86.2876C9.24895 75.3349 10.5942 64.0526 15.0625 53.8606C19.5308 43.6687 26.9224 35.0227 36.3071 29.0109L30.7251 20.3451Z" fill="#AFA4F1"/>
<path d="M63.1493 11.3431C51.7708 11.4444 40.613 14.4537 30.7317 20.0864L35.855 29.0889C44.2099 24.3263 53.6442 21.7818 63.265 21.6962L63.1493 11.3431Z" fill="#FA8AA0"/>
<path d="M50.122 79.36V75.796L56.876 66.16H61.606V75.62H63.3V79.36H61.606V82H57.25V79.36H50.122ZM57.58 71.022L54.544 75.62H57.58V71.022ZM75.3649 69.13L70.0849 82H65.6629L70.9869 69.636H64.7169V65.94H75.3649V69.13Z" fill="black"/>
<path d="M74.9566 75.57C74.9566 75.0033 75.1166 74.57 75.4366 74.27C75.7566 73.97 76.1766 73.82 76.6966 73.82C77.2099 73.82 77.6266 73.97 77.9466 74.27C78.2666 74.57 78.4266 75.0033 78.4266 75.57C78.4266 76.13 78.2666 76.5633 77.9466 76.87C77.6266 77.17 77.2099 77.32 76.6966 77.32C76.1832 77.32 75.7632 77.17 75.4366 76.87C75.1166 76.5633 74.9566 76.13 74.9566 75.57ZM82.0566 73.93L78.2666 81H76.3866L80.1766 73.93H82.0566ZM76.6866 74.97C76.4132 74.97 76.2766 75.17 76.2766 75.57C76.2766 75.97 76.4132 76.17 76.6866 76.17C76.8199 76.17 76.9232 76.12 76.9966 76.02C77.0766 75.92 77.1166 75.77 77.1166 75.57C77.1166 75.37 77.0766 75.22 76.9966 75.12C76.9232 75.02 76.8199 74.97 76.6866 74.97ZM80.0166 79.35C80.0166 78.79 80.1766 78.36 80.4966 78.06C80.8232 77.7533 81.2432 77.6 81.7566 77.6C82.2699 77.6 82.6832 77.7533 82.9966 78.06C83.3166 78.36 83.4766 78.79 83.4766 79.35C83.4766 79.9167 83.3166 80.3533 82.9966 80.66C82.6832 80.96 82.2699 81.11 81.7566 81.11C81.2432 81.11 80.8232 80.96 80.4966 80.66C80.1766 80.3533 80.0166 79.9167 80.0166 79.35ZM81.7466 78.75C81.4666 78.75 81.3266 78.95 81.3266 79.35C81.3266 79.7567 81.4666 79.96 81.7466 79.96C81.8732 79.96 81.9732 79.91 82.0466 79.81C82.1266 79.7033 82.1666 79.55 82.1666 79.35C82.1666 79.1567 82.1266 79.01 82.0466 78.91C81.9732 78.8033 81.8732 78.75 81.7466 78.75Z" fill="black"/>
<path d="M46.299 90.565V92.49H48.884V93.711H46.299V95.746H49.214V97H44.759V89.311H49.214V90.565H46.299ZM53.9795 97L52.7255 95.108L51.6145 97H49.9645L51.9555 93.942L49.9425 90.906H51.6805L52.9235 92.787L54.0455 90.906H55.6955L53.6935 93.942L55.7175 97H53.9795ZM62.2189 93.821C62.2189 94.041 62.2043 94.239 62.1749 94.415H57.7199C57.7566 94.855 57.9106 95.1997 58.1819 95.449C58.4533 95.6983 58.7869 95.823 59.1829 95.823C59.7549 95.823 60.1619 95.5773 60.4039 95.086H62.0649C61.8889 95.6727 61.5516 96.1567 61.0529 96.538C60.5543 96.912 59.9419 97.099 59.2159 97.099C58.6293 97.099 58.1013 96.9707 57.6319 96.714C57.1699 96.45 56.8069 96.0797 56.5429 95.603C56.2863 95.1263 56.1579 94.5763 56.1579 93.953C56.1579 93.3223 56.2863 92.7687 56.5429 92.292C56.7996 91.8153 57.1589 91.4487 57.6209 91.192C58.0829 90.9353 58.6146 90.807 59.2159 90.807C59.7953 90.807 60.3123 90.9317 60.7669 91.181C61.2289 91.4303 61.5846 91.786 61.8339 92.248C62.0906 92.7027 62.2189 93.227 62.2189 93.821ZM60.6239 93.381C60.6166 92.985 60.4736 92.6697 60.1949 92.435C59.9163 92.193 59.5753 92.072 59.1719 92.072C58.7906 92.072 58.4679 92.1893 58.2039 92.424C57.9473 92.6513 57.7896 92.9703 57.7309 93.381H60.6239ZM64.883 88.86V97H63.343V88.86H64.883ZM72.0695 93.821C72.0695 94.041 72.0548 94.239 72.0255 94.415H67.5705C67.6072 94.855 67.7612 95.1997 68.0325 95.449C68.3038 95.6983 68.6375 95.823 69.0335 95.823C69.6055 95.823 70.0125 95.5773 70.2545 95.086H71.9155C71.7395 95.6727 71.4022 96.1567 70.9035 96.538C70.4048 96.912 69.7925 97.099 69.0665 97.099C68.4798 97.099 67.9518 96.9707 67.4825 96.714C67.0205 96.45 66.6575 96.0797 66.3935 95.603C66.1368 95.1263 66.0085 94.5763 66.0085 93.953C66.0085 93.3223 66.1368 92.7687 66.3935 92.292C66.6502 91.8153 67.0095 91.4487 67.4715 91.192C67.9335 90.9353 68.4652 90.807 69.0665 90.807C69.6458 90.807 70.1628 90.9317 70.6175 91.181C71.0795 91.4303 71.4352 91.786 71.6845 92.248C71.9412 92.7027 72.0695 93.227 72.0695 93.821ZM70.4745 93.381C70.4672 92.985 70.3242 92.6697 70.0455 92.435C69.7668 92.193 69.4258 92.072 69.0225 92.072C68.6412 92.072 68.3185 92.1893 68.0545 92.424C67.7978 92.6513 67.6402 92.9703 67.5815 93.381H70.4745ZM76.5706 90.818C77.2966 90.818 77.8832 91.049 78.3306 91.511C78.7779 91.9657 79.0016 92.6037 79.0016 93.425V97H77.4616V93.634C77.4616 93.15 77.3406 92.7797 77.0986 92.523C76.8566 92.259 76.5266 92.127 76.1086 92.127C75.6832 92.127 75.3459 92.259 75.0966 92.523C74.8546 92.7797 74.7336 93.15 74.7336 93.634V97H73.1936V90.906H74.7336V91.665C74.9389 91.401 75.1992 91.1957 75.5146 91.049C75.8372 90.895 76.1892 90.818 76.5706 90.818ZM82.259 92.171V95.119C82.259 95.3243 82.3067 95.4747 82.402 95.57C82.5047 95.658 82.6734 95.702 82.908 95.702H83.623V97H82.655C81.357 97 80.708 96.3693 80.708 95.108V92.171H79.982V90.906H80.708V89.399H82.259V90.906H83.623V92.171H82.259Z" fill="#C9CCD3"/>
</svg>
