<svg width="744" height="228" viewBox="0 0 744 228" fill="none" xmlns="http://www.w3.org/2000/svg">
<path d="M33 129C33 127.895 33.8954 127 35 127H46C47.1046 127 48 127.895 48 129V201H33V129Z" fill="#0288F9"/>
<path d="M91 105C91 103.895 91.8954 103 93 103H104C105.105 103 106 103.895 106 105V201H91V105Z" fill="#0288F9"/>
<path d="M150 76C150 74.8954 150.895 74 152 74H163C164.105 74 165 74.8954 165 76V201H150V76Z" fill="#0288F9"/>
<path d="M208 53C208 51.8954 208.895 51 210 51H221C222.105 51 223 51.8954 223 53V201H208V53Z" fill="#0288F9"/>
<path d="M267 116C267 114.895 267.895 114 269 114H280C281.105 114 282 114.895 282 116V201H267V116Z" fill="#0288F9"/>
<path d="M325 77C325 75.8954 325.895 75 327 75H338C339.105 75 340 75.8954 340 77V201H325V77Z" fill="#0288F9"/>
<path d="M384 141C384 139.895 384.895 139 386 139H397C398.105 139 399 139.895 399 141V201H384V141Z" fill="#0288F9"/>
<path d="M501 167C501 165.895 501.895 165 503 165H514C515.105 165 516 165.895 516 167V201H501V167Z" fill="#0288F9"/>
<path d="M559 141C559 139.895 559.895 139 561 139H572C573.105 139 574 139.895 574 141V201H559V141Z" fill="#0288F9"/>
<path d="M618 116C618 114.895 618.895 114 620 114H631C632.105 114 633 114.895 633 116V201H618V116Z" fill="#0288F9"/>
<path d="M676 116C676 114.895 676.895 114 678 114H689C690.105 114 691 114.895 691 116V201H676V116Z" fill="#0288F9"/>
<path d="M442 110C442 108.895 442.895 108 444 108H455C456.105 108 457 108.895 457 110V201H442V110Z" fill="#0288F9"/>
<path d="M50 131C50 129.895 50.8954 129 52 129H63C64.1046 129 65 129.895 65 131V201H50V131Z" fill="#00DFD5"/>
<path d="M108 118C108 116.895 108.895 116 110 116H121C122.105 116 123 116.895 123 118V201H108V118Z" fill="#00DFD5"/>
<path d="M167 81C167 79.8954 167.895 79 169 79H180C181.105 79 182 79.8954 182 81V201H167V81Z" fill="#00DFD5"/>
<path d="M225 62C225 60.8954 225.895 60 227 60H238C239.105 60 240 60.8954 240 62V201H225V62Z" fill="#00DFD5"/>
<path d="M284 121C284 119.895 284.895 119 286 119H297C298.105 119 299 119.895 299 121V201H284V121Z" fill="#00DFD5"/>
<path d="M342 114C342 112.895 342.895 112 344 112H355C356.105 112 357 112.895 357 114V201H342V114Z" fill="#00DFD5"/>
<path d="M401 167C401 165.895 401.895 165 403 165H414C415.105 165 416 165.895 416 167V201H401V167Z" fill="#00DFD5"/>
<path d="M518 178C518 176.895 518.895 176 520 176H531C532.105 176 533 176.895 533 178V201H518V178Z" fill="#00DFD5"/>
<path d="M576 150C576 148.895 576.895 148 578 148H589C590.105 148 591 148.895 591 150V201H576V150Z" fill="#00DFD5"/>
<path d="M635 126C635 124.895 635.895 124 637 124H648C649.105 124 650 124.895 650 126V201H635V126Z" fill="#00DFD5"/>
<path d="M693 126C693 124.895 693.895 124 695 124H706C707.105 124 708 124.895 708 126V201H693V126Z" fill="#00DFD5"/>
<path d="M459 126C459 124.895 459.895 124 461 124H472C473.105 124 474 124.895 474 126V201H459V126Z" fill="#00DFD5"/>
<path d="M23 153.64L30.5075 150.67C38.5925 147.7 53.6075 141.76 69.2 147.7C84.7925 153.64 99.8075 171.46 115.4 162.55C130.993 153.64 146.007 118 161.6 100.18C177.192 82.3604 192.208 82.3604 207.8 100.18C223.393 118 238.407 153.64 254 150.67C269.592 147.7 284.607 106.12 300.2 91.2704C315.792 76.4204 330.807 88.3004 346.4 97.2104C361.992 106.12 377.008 112.06 392.6 100.18C408.193 88.3004 423.207 58.6004 438.8 52.6604C454.392 46.7204 469.407 64.5404 485 76.4204C500.592 88.3004 515.607 94.2404 531.2 97.2104C546.792 100.18 561.807 100.18 577.4 91.2704C592.992 82.3604 608.007 64.5404 623.6 52.6604C639.192 40.7804 657.368 39.6556 669.8 58.6004C685.392 82.3604 706.915 70.4804 715 97.2104" stroke="#D9A888" stroke-width="2"/>
<path d="M5.03334 24.8811C4.97095 24.6191 4.86177 24.4226 4.7058 24.2916C4.55607 24.1606 4.33772 24.095 4.05074 24.095C3.62027 24.095 3.30209 24.2697 3.09621 24.6191C2.89657 24.9622 2.79363 25.5237 2.7874 26.3036C2.93712 26.054 3.15548 25.8606 3.44246 25.7234C3.72944 25.5799 4.04138 25.5081 4.37827 25.5081C4.78379 25.5081 5.14251 25.5955 5.45445 25.7701C5.76639 25.9448 6.0097 26.2006 6.18438 26.5375C6.35907 26.8682 6.44641 27.2674 6.44641 27.7353C6.44641 28.1783 6.35595 28.5745 6.17502 28.9238C6.00034 29.2669 5.74143 29.5352 5.3983 29.7286C5.05517 29.922 4.64654 30.0187 4.17239 30.0187C3.52357 30.0187 3.01199 29.8752 2.63767 29.5882C2.26958 29.3013 2.01067 28.902 1.86094 28.3904C1.71745 27.8726 1.64571 27.2362 1.64571 26.4814C1.64571 25.3397 1.84223 24.4787 2.23527 23.8985C2.62831 23.3121 3.24906 23.0189 4.09753 23.0189C4.75259 23.0189 5.26105 23.1967 5.6229 23.5523C5.98474 23.9079 6.19374 24.3508 6.24989 24.8811H5.03334ZM4.07881 26.5843C3.74816 26.5843 3.47054 26.681 3.24594 26.8744C3.02135 27.0678 2.90905 27.3485 2.90905 27.7166C2.90905 28.0847 3.01199 28.3748 3.21787 28.5869C3.42998 28.799 3.72632 28.9051 4.10689 28.9051C4.44378 28.9051 4.70892 28.8022 4.90232 28.5963C5.10196 28.3904 5.20178 28.1128 5.20178 27.7634C5.20178 27.4016 5.10508 27.1146 4.91168 26.9025C4.72452 26.6904 4.4469 26.5843 4.07881 26.5843ZM10.7011 30L8.94173 27.7915V30H7.6316V23.075H8.94173V27.0148L10.6823 24.8156H12.3855L10.1021 27.4172L12.4042 30H10.7011Z" fill="#9CA5AC"/>
<path d="M1.90773 144.521C2.50665 144.022 2.98392 143.607 3.33952 143.277C3.69513 142.94 3.99147 142.591 4.22854 142.229C4.46561 141.867 4.58415 141.511 4.58415 141.162C4.58415 140.844 4.50928 140.594 4.35955 140.413C4.20983 140.232 3.97899 140.142 3.66706 140.142C3.35512 140.142 3.11493 140.248 2.94648 140.46C2.77804 140.666 2.6907 140.95 2.68446 141.312H1.41176C1.43671 140.563 1.65819 139.995 2.07618 139.608C2.50041 139.222 3.03694 139.028 3.68577 139.028C4.39699 139.028 4.94288 139.219 5.32344 139.599C5.704 139.973 5.89428 140.469 5.89428 141.087C5.89428 141.574 5.76327 142.038 5.50124 142.481C5.23922 142.924 4.93976 143.311 4.60286 143.642C4.26597 143.966 3.82614 144.359 3.28337 144.821H6.04401V145.906H1.42111V144.933L1.90773 144.521ZM10.0888 146L8.32943 143.791V146H7.0193V139.075H8.32943V143.015L10.07 140.816H11.7732L9.48984 143.417L11.7919 146H10.0888Z" fill="#9CA5AC"/>
<path d="M1.43983 86.6712V85.6418L4.49993 81.2622H6.02529V85.5295H6.84881V86.6712H6.02529V88H4.71516V86.6712H1.43983ZM4.79938 82.6659L2.88098 85.5295H4.79938V82.6659ZM10.9021 88L9.14278 85.7915V88H7.83265V81.075H9.14278V85.0148L10.8834 82.8156H12.5866L10.3032 85.4172L12.6053 88H10.9021Z" fill="#9CA5AC"/>
<path d="M4.97105 200.5C4.97105 199.421 5.16445 198.575 5.55125 197.964C5.94429 197.353 6.59312 197.047 7.49773 197.047C8.40235 197.047 9.04806 197.353 9.43486 197.964C9.8279 198.575 10.0244 199.421 10.0244 200.5C10.0244 201.586 9.8279 202.437 9.43486 203.055C9.04806 203.672 8.40235 203.981 7.49773 203.981C6.59312 203.981 5.94429 203.672 5.55125 203.055C5.16445 202.437 4.97105 201.586 4.97105 200.5ZM8.733 200.5C8.733 200.038 8.70181 199.652 8.63942 199.34C8.58327 199.021 8.46474 198.763 8.28381 198.563C8.10913 198.363 7.8471 198.263 7.49773 198.263C7.14837 198.263 6.88322 198.363 6.7023 198.563C6.52761 198.763 6.40908 199.021 6.34669 199.34C6.29054 199.652 6.26247 200.038 6.26247 200.5C6.26247 200.974 6.29054 201.373 6.34669 201.698C6.40284 202.016 6.52137 202.275 6.7023 202.475C6.88322 202.668 7.14837 202.765 7.49773 202.765C7.8471 202.765 8.11225 202.668 8.29317 202.475C8.47409 202.275 8.59263 202.016 8.64878 201.698C8.70493 201.373 8.733 200.974 8.733 200.5Z" fill="#9CA5AC"/>
<path d="M6.08144 53.3103H3.04942V54.9105C3.18044 54.7483 3.3676 54.6173 3.61091 54.5175C3.85422 54.4114 4.11312 54.3584 4.38763 54.3584C4.88673 54.3584 5.29536 54.4676 5.61354 54.6859C5.93171 54.9043 6.16255 55.185 6.30604 55.5281C6.44953 55.865 6.52127 56.2269 6.52127 56.6137C6.52127 57.3311 6.3154 57.9082 5.90364 58.3449C5.49812 58.7816 4.91792 59 4.16303 59C3.45182 59 2.8841 58.8222 2.45986 58.4666C2.03563 58.111 1.79544 57.6462 1.73929 57.0722H3.01199C3.06814 57.3218 3.19291 57.5214 3.38631 57.6712C3.58595 57.8209 3.83862 57.8957 4.14432 57.8957C4.5124 57.8957 4.79003 57.7803 4.97719 57.5495C5.16435 57.3187 5.25793 57.013 5.25793 56.6324C5.25793 56.2456 5.16123 55.9524 4.96783 55.7527C4.78067 55.5469 4.50305 55.4439 4.13496 55.4439C3.87293 55.4439 3.65458 55.5094 3.47989 55.6404C3.30521 55.7715 3.18044 55.9461 3.10557 56.1645H1.85159V52.1592H6.08144V53.3103ZM10.7376 59L8.97828 56.7915V59H7.66815V52.075H8.97828V56.0148L10.7189 53.8156H12.4221L10.1387 56.4172L12.4408 59H10.7376Z" fill="#9CA5AC"/>
<path d="M1.33689 169.385V168.178H3.59219V175H2.24463V169.385H1.33689ZM8.10564 175L6.34632 172.791V175H5.03619V168.075H6.34632V172.015L8.08693 169.816H9.7901L7.50672 172.417L9.80881 175H8.10564Z" fill="#9CA5AC"/>
<path d="M1.5147 111.975C1.54589 111.351 1.76424 110.87 2.16976 110.534C2.58152 110.19 3.12117 110.019 3.78871 110.019C4.24414 110.019 4.63406 110.1 4.95847 110.262C5.28289 110.418 5.5262 110.633 5.6884 110.908C5.85685 111.176 5.94107 111.482 5.94107 111.825C5.94107 112.218 5.83813 112.552 5.63226 112.826C5.43262 113.095 5.19242 113.275 4.91168 113.369V113.406C5.27353 113.519 5.55427 113.718 5.75391 114.005C5.95979 114.292 6.06273 114.66 6.06273 115.11C6.06273 115.484 5.97538 115.818 5.8007 116.111C5.63225 116.404 5.37959 116.635 5.0427 116.803C4.71204 116.966 4.31276 117.047 3.84486 117.047C3.13988 117.047 2.56592 116.869 2.12297 116.513C1.68002 116.158 1.44607 115.634 1.42111 114.941H2.69381C2.70629 115.247 2.80923 115.493 3.00263 115.681C3.20227 115.861 3.47366 115.952 3.81679 115.952C4.13496 115.952 4.37827 115.865 4.54672 115.69C4.7214 115.509 4.80874 115.278 4.80874 114.997C4.80874 114.623 4.69021 114.355 4.45314 114.193C4.21606 114.03 3.84798 113.949 3.34888 113.949H3.0775V112.873H3.34888C4.23478 112.873 4.67773 112.577 4.67773 111.984C4.67773 111.716 4.59663 111.507 4.43442 111.357C4.27845 111.207 4.05074 111.132 3.75128 111.132C3.45806 111.132 3.23034 111.214 3.06814 111.376C2.91217 111.532 2.82171 111.731 2.79675 111.975H1.5147ZM10.3172 117L8.5579 114.791V117H7.24777V110.075H8.5579V114.015L10.2985 111.816H12.0017L9.7183 114.417L12.0204 117H10.3172Z" fill="#9CA5AC"/>
<circle cx="4" cy="6" r="3.5" stroke="#D9A888"/>
<circle cx="55" cy="6" r="3.5" stroke="#0288F9"/>
<path d="M14.5011 6.70595C14.5011 6.05712 14.6415 5.48004 14.9223 4.97471C15.203 4.46313 15.5929 4.06697 16.092 3.78623C16.5974 3.49925 17.1682 3.35576 17.8045 3.35576C18.5844 3.35576 19.2519 3.56163 19.8072 3.97339C20.3624 4.38515 20.7336 4.94663 20.9208 5.65785H19.1615C19.0305 5.38334 18.8433 5.17434 18.6 5.03085C18.3629 4.88736 18.0915 4.81562 17.7858 4.81562C17.293 4.81562 16.8937 4.98718 16.588 5.33031C16.2823 5.67344 16.1294 6.13199 16.1294 6.70595C16.1294 7.27991 16.2823 7.73846 16.588 8.08159C16.8937 8.42472 17.293 8.59629 17.7858 8.59629C18.0915 8.59629 18.3629 8.52454 18.6 8.38105C18.8433 8.23756 19.0305 8.02856 19.1615 7.75406H20.9208C20.7336 8.46527 20.3624 9.02676 19.8072 9.43851C19.2519 9.84403 18.5844 10.0468 17.8045 10.0468C17.1682 10.0468 16.5974 9.90642 16.092 9.62568C15.5929 9.33869 15.203 8.94254 14.9223 8.4372C14.6415 7.93186 14.5011 7.35478 14.5011 6.70595ZM24.2777 10.0749C23.7661 10.0749 23.3045 9.96569 22.8927 9.74733C22.4872 9.52898 22.1659 9.21704 21.9288 8.81152C21.698 8.40601 21.5826 7.93186 21.5826 7.38909C21.5826 6.85256 21.7011 6.38154 21.9382 5.97602C22.1753 5.56426 22.4997 5.24921 22.9114 5.03085C23.3232 4.8125 23.7849 4.70332 24.2964 4.70332C24.808 4.70332 25.2697 4.8125 25.6814 5.03085C26.0932 5.24921 26.4176 5.56426 26.6547 5.97602C26.8917 6.38154 27.0103 6.85256 27.0103 7.38909C27.0103 7.92562 26.8886 8.39977 26.6453 8.81152C26.4082 9.21704 26.0807 9.52898 25.6627 9.74733C25.251 9.96569 24.7893 10.0749 24.2777 10.0749ZM24.2777 8.68987C24.5834 8.68987 24.8423 8.57757 25.0544 8.35298C25.2728 8.12838 25.382 7.80709 25.382 7.38909C25.382 6.9711 25.2759 6.6498 25.0638 6.42521C24.8579 6.20062 24.6021 6.08832 24.2964 6.08832C23.9845 6.08832 23.7256 6.20062 23.5197 6.42521C23.3138 6.64356 23.2109 6.96486 23.2109 7.38909C23.2109 7.80709 23.3107 8.12838 23.5103 8.35298C23.7162 8.57757 23.972 8.68987 24.2777 8.68987ZM29.9835 10.0749C29.5281 10.0749 29.1226 9.99688 28.767 9.84091C28.4114 9.68494 28.1306 9.47283 27.9247 9.20456C27.7189 8.93006 27.6034 8.62436 27.5785 8.28747H29.16C29.1787 8.46839 29.2629 8.615 29.4127 8.7273C29.5624 8.8396 29.7464 8.89575 29.9648 8.89575C30.1644 8.89575 30.3173 8.85831 30.4233 8.78345C30.5356 8.70234 30.5918 8.59941 30.5918 8.47463C30.5918 8.3249 30.5138 8.21572 30.3578 8.1471C30.2019 8.07223 29.9492 7.99113 29.5998 7.90379C29.2255 7.81645 28.9136 7.72598 28.664 7.6324C28.4145 7.53258 28.1992 7.37973 28.0183 7.17386C27.8374 6.96174 27.7469 6.67788 27.7469 6.32227C27.7469 6.02281 27.828 5.75143 27.9902 5.50812C28.1587 5.25857 28.402 5.06205 28.7202 4.91856C29.0446 4.77507 29.4283 4.70332 29.8712 4.70332C30.5263 4.70332 31.041 4.86553 31.4153 5.18994C31.7959 5.51436 32.0142 5.94483 32.0704 6.48136H30.5918C30.5668 6.30043 30.4857 6.15694 30.3485 6.05089C30.2175 5.94483 30.0428 5.8918 29.8244 5.8918C29.6373 5.8918 29.4938 5.92923 29.394 6.0041C29.2941 6.07272 29.2442 6.16942 29.2442 6.2942C29.2442 6.44393 29.3222 6.55622 29.4782 6.63109C29.6404 6.70595 29.8899 6.78082 30.2268 6.85568C30.6136 6.9555 30.9287 7.05532 31.172 7.15514C31.4153 7.24872 31.6274 7.40469 31.8083 7.62304C31.9955 7.83516 32.0922 8.12214 32.0984 8.48399C32.0984 8.78969 32.0111 9.06419 31.8364 9.3075C31.668 9.54457 31.4215 9.73173 31.0971 9.86899C30.779 10.0062 30.4077 10.0749 29.9835 10.0749ZM35.9878 8.64308V10H35.1737C34.5935 10 34.1412 9.85963 33.8167 9.57889C33.4923 9.2919 33.3301 8.82712 33.3301 8.18453V6.10703H32.6938V4.77819H33.3301V3.50549H34.9304V4.77819H35.9785V6.10703H34.9304V8.20325C34.9304 8.35921 34.9678 8.47151 35.0427 8.54014C35.1175 8.60876 35.2423 8.64308 35.417 8.64308H35.9878Z" fill="#DCDDE1"/>
<path d="M70.6697 8.8396H68.2179L67.8248 10H66.1497L68.5267 3.43062H70.3796L72.7565 10H71.0627L70.6697 8.8396ZM70.2579 7.60433L69.4438 5.1993L68.639 7.60433H70.2579ZM73.1618 7.37973C73.1618 6.8432 73.2616 6.37218 73.4612 5.96666C73.6671 5.56115 73.9448 5.24921 74.2941 5.03085C74.6435 4.8125 75.0334 4.70332 75.4639 4.70332C75.807 4.70332 76.1189 4.77507 76.3997 4.91856C76.6867 5.06205 76.9113 5.25545 77.0735 5.49876V3.07501H78.6737V10H77.0735V9.25135C76.9237 9.5009 76.7085 9.70054 76.4278 9.85027C76.1533 10 75.832 10.0749 75.4639 10.0749C75.0334 10.0749 74.6435 9.96569 74.2941 9.74733C73.9448 9.52274 73.6671 9.20768 73.4612 8.80216C73.2616 8.39041 73.1618 7.91627 73.1618 7.37973ZM77.0735 7.38909C77.0735 6.98981 76.9612 6.67476 76.7366 6.44393C76.5182 6.21309 76.25 6.09768 75.9318 6.09768C75.6136 6.09768 75.3422 6.21309 75.1176 6.44393C74.8993 6.66852 74.7901 6.98046 74.7901 7.37973C74.7901 7.77901 74.8993 8.09719 75.1176 8.33426C75.3422 8.56509 75.6136 8.68051 75.9318 8.68051C76.25 8.68051 76.5182 8.56509 76.7366 8.33426C76.9612 8.10343 77.0735 7.78837 77.0735 7.38909ZM86.4944 4.72204C87.1432 4.72204 87.6579 4.91856 88.0385 5.3116C88.4253 5.70464 88.6187 6.25052 88.6187 6.94926V10H87.0278V7.1645C87.0278 6.82761 86.9373 6.5687 86.7564 6.38778C86.5817 6.20062 86.3384 6.10703 86.0265 6.10703C85.7145 6.10703 85.4681 6.20062 85.2872 6.38778C85.1125 6.5687 85.0251 6.82761 85.0251 7.1645V10H83.4343V7.1645C83.4343 6.82761 83.3438 6.5687 83.1629 6.38778C82.9882 6.20062 82.7449 6.10703 82.433 6.10703C82.121 6.10703 81.8746 6.20062 81.6937 6.38778C81.519 6.5687 81.4316 6.82761 81.4316 7.1645V10H79.8314V4.77819H81.4316V5.43325C81.5938 5.2149 81.806 5.04333 82.068 4.91856C82.33 4.78754 82.6264 4.72204 82.957 4.72204C83.35 4.72204 83.6994 4.80626 84.0051 4.97471C84.317 5.14315 84.5604 5.38334 84.735 5.69528C84.916 5.4083 85.1624 5.17434 85.4743 4.99342C85.7863 4.8125 86.1263 4.72204 86.4944 4.72204ZM90.5426 4.23542C90.2619 4.23542 90.031 4.15431 89.8501 3.99211C89.6754 3.82366 89.5881 3.61778 89.5881 3.37447C89.5881 3.12492 89.6754 2.91904 89.8501 2.75684C90.031 2.58839 90.2619 2.50417 90.5426 2.50417C90.8171 2.50417 91.0417 2.58839 91.2164 2.75684C91.3973 2.91904 91.4878 3.12492 91.4878 3.37447C91.4878 3.61778 91.3973 3.82366 91.2164 3.99211C91.0417 4.15431 90.8171 4.23542 90.5426 4.23542ZM91.3381 4.77819V10H89.7378V4.77819H91.3381ZM95.4081 8.64308V10H94.5939C94.0137 10 93.5614 9.85963 93.237 9.57889C92.9126 9.2919 92.7504 8.82712 92.7504 8.18453V6.10703H92.114V4.77819H92.7504V3.50549H94.3506V4.77819H95.3987V6.10703H94.3506V8.20325C94.3506 8.35921 94.3881 8.47151 94.4629 8.54014C94.5378 8.60876 94.6626 8.64308 94.8372 8.64308H95.4081ZM101.222 7.30487C101.222 7.4546 101.212 7.61057 101.194 7.77277H97.5721C97.5971 8.09719 97.7 8.34674 97.881 8.52142C98.0681 8.68987 98.2958 8.77409 98.5641 8.77409C98.9634 8.77409 99.241 8.60564 99.397 8.26875H101.1C101.013 8.61188 100.854 8.9207 100.623 9.1952C100.398 9.46971 100.114 9.68494 99.7713 9.84091C99.4282 9.99688 99.0445 10.0749 98.6203 10.0749C98.1087 10.0749 97.6533 9.96569 97.254 9.74733C96.8547 9.52898 96.5428 9.21704 96.3182 8.81152C96.0936 8.40601 95.9813 7.93186 95.9813 7.38909C95.9813 6.84632 96.0905 6.37218 96.3088 5.96666C96.5334 5.56115 96.8453 5.24921 97.2446 5.03085C97.6439 4.8125 98.1024 4.70332 98.6203 4.70332C99.1256 4.70332 99.5748 4.80938 99.9678 5.0215C100.361 5.23361 100.667 5.53619 100.885 5.92923C101.11 6.32227 101.222 6.78082 101.222 7.30487ZM99.5841 6.88376C99.5841 6.60925 99.4906 6.3909 99.3034 6.22869C99.1162 6.06648 98.8823 5.98538 98.6015 5.98538C98.3333 5.98538 98.1056 6.06336 97.9184 6.21933C97.7375 6.3753 97.6252 6.59677 97.5815 6.88376H99.5841ZM101.748 7.37973C101.748 6.8432 101.848 6.37218 102.047 5.96666C102.253 5.56115 102.531 5.24921 102.88 5.03085C103.23 4.8125 103.619 4.70332 104.05 4.70332C104.393 4.70332 104.705 4.77507 104.986 4.91856C105.273 5.06205 105.497 5.25545 105.66 5.49876V3.07501H107.26V10H105.66V9.25135C105.51 9.5009 105.295 9.70054 105.014 9.85027C104.739 10 104.418 10.0749 104.05 10.0749C103.619 10.0749 103.23 9.96569 102.88 9.74733C102.531 9.52274 102.253 9.20768 102.047 8.80216C101.848 8.39041 101.748 7.91627 101.748 7.37973ZM105.66 7.38909C105.66 6.98981 105.547 6.67476 105.323 6.44393C105.104 6.21309 104.836 6.09768 104.518 6.09768C104.2 6.09768 103.928 6.21309 103.704 6.44393C103.485 6.66852 103.376 6.98046 103.376 7.37973C103.376 7.77901 103.485 8.09719 103.704 8.33426C103.928 8.56509 104.2 8.68051 104.518 8.68051C104.836 8.68051 105.104 8.56509 105.323 8.33426C105.547 8.10343 105.66 7.78837 105.66 7.38909ZM115.407 5.54555C115.407 5.92611 115.32 6.27548 115.145 6.59365C114.97 6.90559 114.702 7.15826 114.34 7.35166C113.978 7.54506 113.529 7.64176 112.993 7.64176H112.001V10H110.401V3.43062H112.993C113.517 3.43062 113.96 3.52108 114.322 3.702C114.683 3.88293 114.955 4.13248 115.136 4.45065C115.317 4.76883 115.407 5.13379 115.407 5.54555ZM112.871 6.36906C113.177 6.36906 113.405 6.29732 113.554 6.15382C113.704 6.01033 113.779 5.80758 113.779 5.54555C113.779 5.28352 113.704 5.08076 113.554 4.93727C113.405 4.79378 113.177 4.72204 112.871 4.72204H112.001V6.36906H112.871ZM115.922 7.37973C115.922 6.8432 116.022 6.37218 116.222 5.96666C116.427 5.56115 116.705 5.24921 117.054 5.03085C117.404 4.8125 117.794 4.70332 118.224 4.70332C118.592 4.70332 118.914 4.77819 119.188 4.92791C119.469 5.07764 119.684 5.27416 119.834 5.51747V4.77819H121.434V10H119.834V9.26071C119.678 9.50402 119.459 9.70054 119.179 9.85027C118.904 10 118.583 10.0749 118.215 10.0749C117.791 10.0749 117.404 9.96569 117.054 9.74733C116.705 9.52274 116.427 9.20768 116.222 8.80216C116.022 8.39041 115.922 7.91627 115.922 7.37973ZM119.834 7.38909C119.834 6.98981 119.721 6.67476 119.497 6.44393C119.278 6.21309 119.01 6.09768 118.692 6.09768C118.374 6.09768 118.102 6.21309 117.878 6.44393C117.66 6.66852 117.55 6.98046 117.55 7.37973C117.55 7.77901 117.66 8.09719 117.878 8.33426C118.102 8.56509 118.374 8.68051 118.692 8.68051C119.01 8.68051 119.278 8.56509 119.497 8.33426C119.721 8.10343 119.834 7.78837 119.834 7.38909ZM125.502 8.64308V10H124.688C124.108 10 123.655 9.85963 123.331 9.57889C123.007 9.2919 122.844 8.82712 122.844 8.18453V6.10703H122.208V4.77819H122.844V3.50549H124.445V4.77819H125.493V6.10703H124.445V8.20325C124.445 8.35921 124.482 8.47151 124.557 8.54014C124.632 8.60876 124.757 8.64308 124.931 8.64308H125.502ZM127.198 4.23542C126.917 4.23542 126.687 4.15431 126.506 3.99211C126.331 3.82366 126.244 3.61778 126.244 3.37447C126.244 3.12492 126.331 2.91904 126.506 2.75684C126.687 2.58839 126.917 2.50417 127.198 2.50417C127.473 2.50417 127.697 2.58839 127.872 2.75684C128.053 2.91904 128.143 3.12492 128.143 3.37447C128.143 3.61778 128.053 3.82366 127.872 3.99211C127.697 4.15431 127.473 4.23542 127.198 4.23542ZM127.994 4.77819V10H126.393V4.77819H127.994ZM128.835 7.37973C128.835 6.8432 128.935 6.37218 129.135 5.96666C129.34 5.56115 129.618 5.24921 129.967 5.03085C130.317 4.8125 130.707 4.70332 131.137 4.70332C131.505 4.70332 131.827 4.77819 132.101 4.92791C132.382 5.07764 132.597 5.27416 132.747 5.51747V4.77819H134.347V10H132.747V9.26071C132.591 9.50402 132.372 9.70054 132.092 9.85027C131.817 10 131.496 10.0749 131.128 10.0749C130.704 10.0749 130.317 9.96569 129.967 9.74733C129.618 9.52274 129.34 9.20768 129.135 8.80216C128.935 8.39041 128.835 7.91627 128.835 7.37973ZM132.747 7.38909C132.747 6.98981 132.635 6.67476 132.41 6.44393C132.192 6.21309 131.923 6.09768 131.605 6.09768C131.287 6.09768 131.016 6.21309 130.791 6.44393C130.573 6.66852 130.463 6.98046 130.463 7.37973C130.463 7.77901 130.573 8.09719 130.791 8.33426C131.016 8.56509 131.287 8.68051 131.605 8.68051C131.923 8.68051 132.192 8.56509 132.41 8.33426C132.635 8.10343 132.747 7.78837 132.747 7.38909ZM138.686 4.72204C139.298 4.72204 139.784 4.92168 140.146 5.32095C140.514 5.71399 140.698 6.25676 140.698 6.94926V10H139.108V7.1645C139.108 6.81513 139.017 6.54375 138.836 6.35034C138.655 6.15694 138.412 6.06024 138.106 6.06024C137.801 6.06024 137.557 6.15694 137.376 6.35034C137.195 6.54375 137.105 6.81513 137.105 7.1645V10H135.505V4.77819H137.105V5.47068C137.267 5.23985 137.486 5.05893 137.76 4.92791C138.035 4.79066 138.343 4.72204 138.686 4.72204ZM144.721 8.64308V10H143.907C143.326 10 142.874 9.85963 142.55 9.57889C142.225 9.2919 142.063 8.82712 142.063 8.18453V6.10703H141.427V4.77819H142.063V3.50549H143.663V4.77819H144.711V6.10703H143.663V8.20325C143.663 8.35921 143.701 8.47151 143.776 8.54014C143.851 8.60876 143.975 8.64308 144.15 8.64308H144.721Z" fill="#DCDDE1"/>
<path d="M44.4545 217.468V222.054C44.4545 222.69 44.2704 223.186 43.9023 223.541C43.5342 223.891 43.0414 224.066 42.4237 224.066C41.7999 224.066 41.2945 223.885 40.9077 223.523C40.5272 223.161 40.3369 222.656 40.3369 222.007H41.647C41.6533 222.287 41.7188 222.506 41.8435 222.662C41.9746 222.818 42.1617 222.896 42.405 222.896C42.6421 222.896 42.823 222.821 42.9478 222.671C43.0726 222.521 43.135 222.316 43.135 222.054V217.468H44.4545ZM45.6459 221.389C45.6459 220.865 45.7488 220.4 45.9547 219.995C46.1668 219.589 46.4506 219.277 46.8063 219.059C47.1681 218.841 47.5705 218.731 48.0135 218.731C48.4003 218.731 48.7371 218.809 49.0241 218.965C49.3173 219.121 49.5513 219.318 49.726 219.555V218.816H51.0455V224H49.726V223.242C49.5575 223.485 49.3236 223.688 49.0241 223.85C48.7309 224.006 48.3909 224.084 48.0041 224.084C47.5674 224.084 47.1681 223.972 46.8063 223.747C46.4506 223.523 46.1668 223.208 45.9547 222.802C45.7488 222.39 45.6459 221.919 45.6459 221.389ZM49.726 221.408C49.726 221.09 49.6636 220.818 49.5388 220.594C49.414 220.363 49.2456 220.188 49.0335 220.07C48.8214 219.945 48.5937 219.882 48.3503 219.882C48.107 219.882 47.8824 219.942 47.6766 220.06C47.4707 220.179 47.3022 220.353 47.1712 220.584C47.0464 220.809 46.9841 221.077 46.9841 221.389C46.9841 221.701 47.0464 221.976 47.1712 222.213C47.3022 222.443 47.4707 222.621 47.6766 222.746C47.8887 222.871 48.1133 222.933 48.3503 222.933C48.5937 222.933 48.8214 222.874 49.0335 222.755C49.2456 222.631 49.414 222.456 49.5388 222.231C49.6636 222 49.726 221.726 49.726 221.408ZM55.198 218.741C55.8156 218.741 56.3147 218.937 56.6953 219.33C57.0758 219.717 57.2661 220.26 57.2661 220.959V224H55.956V221.136C55.956 220.725 55.853 220.41 55.6472 220.191C55.4413 219.967 55.1605 219.854 54.8049 219.854C54.4431 219.854 54.1561 219.967 53.944 220.191C53.7381 220.41 53.6352 220.725 53.6352 221.136V224H52.325V218.816H53.6352V219.461C53.8099 219.237 54.0313 219.062 54.2996 218.937C54.5741 218.806 54.8736 218.741 55.198 218.741Z" fill="#9CA5AC"/>
<path d="M103.679 217.468V218.526H100.956V220.201H103.043V221.239H100.956V224H99.6457V217.468H103.679ZM109.427 221.296C109.427 221.483 109.415 221.651 109.39 221.801H105.6C105.631 222.175 105.762 222.468 105.993 222.681C106.224 222.893 106.508 222.999 106.845 222.999C107.331 222.999 107.678 222.79 107.883 222.372H109.296C109.147 222.871 108.86 223.283 108.436 223.607C108.011 223.925 107.49 224.084 106.873 224.084C106.374 224.084 105.924 223.975 105.525 223.757C105.132 223.532 104.823 223.217 104.599 222.812C104.38 222.406 104.271 221.938 104.271 221.408C104.271 220.871 104.38 220.4 104.599 219.995C104.817 219.589 105.123 219.277 105.516 219.059C105.909 218.841 106.361 218.731 106.873 218.731C107.366 218.731 107.805 218.837 108.192 219.05C108.585 219.262 108.888 219.564 109.1 219.957C109.318 220.344 109.427 220.79 109.427 221.296ZM108.071 220.921C108.064 220.584 107.943 220.316 107.706 220.116C107.469 219.911 107.178 219.808 106.835 219.808C106.511 219.808 106.236 219.907 106.012 220.107C105.793 220.3 105.659 220.572 105.609 220.921H108.071ZM111.694 219.574C111.862 219.324 112.093 219.121 112.386 218.965C112.686 218.809 113.026 218.731 113.406 218.731C113.849 218.731 114.249 218.841 114.604 219.059C114.966 219.277 115.25 219.589 115.456 219.995C115.668 220.394 115.774 220.859 115.774 221.389C115.774 221.919 115.668 222.39 115.456 222.802C115.25 223.208 114.966 223.523 114.604 223.747C114.249 223.972 113.849 224.084 113.406 224.084C113.02 224.084 112.68 224.009 112.386 223.86C112.099 223.704 111.869 223.504 111.694 223.261V224H110.384V217.075H111.694V219.574ZM114.436 221.389C114.436 221.077 114.37 220.809 114.239 220.584C114.115 220.353 113.946 220.179 113.734 220.06C113.528 219.942 113.303 219.882 113.06 219.882C112.823 219.882 112.598 219.945 112.386 220.07C112.181 220.188 112.012 220.363 111.881 220.594C111.756 220.824 111.694 221.096 111.694 221.408C111.694 221.72 111.756 221.991 111.881 222.222C112.012 222.453 112.181 222.631 112.386 222.755C112.598 222.874 112.823 222.933 113.06 222.933C113.303 222.933 113.528 222.871 113.734 222.746C113.946 222.621 114.115 222.443 114.239 222.213C114.37 221.982 114.436 221.707 114.436 221.389Z" fill="#9CA5AC"/>
<path d="M165.767 217.468V224H164.457V219.751L162.707 224H161.715L159.956 219.751V224H158.646V217.468H160.134L162.211 222.325L164.289 217.468H165.767ZM166.726 221.389C166.726 220.865 166.829 220.4 167.034 219.995C167.247 219.589 167.53 219.277 167.886 219.059C168.248 218.841 168.65 218.731 169.093 218.731C169.48 218.731 169.817 218.809 170.104 218.965C170.397 219.121 170.631 219.318 170.806 219.555V218.816H172.125V224H170.806V223.242C170.637 223.485 170.403 223.688 170.104 223.85C169.811 224.006 169.471 224.084 169.084 224.084C168.647 224.084 168.248 223.972 167.886 223.747C167.53 223.523 167.247 223.208 167.034 222.802C166.829 222.39 166.726 221.919 166.726 221.389ZM170.806 221.408C170.806 221.09 170.743 220.818 170.619 220.594C170.494 220.363 170.325 220.188 170.113 220.07C169.901 219.945 169.673 219.882 169.43 219.882C169.187 219.882 168.962 219.942 168.756 220.06C168.55 220.179 168.382 220.353 168.251 220.584C168.126 220.809 168.064 221.077 168.064 221.389C168.064 221.701 168.126 221.976 168.251 222.213C168.382 222.443 168.55 222.621 168.756 222.746C168.968 222.871 169.193 222.933 169.43 222.933C169.673 222.933 169.901 222.874 170.113 222.755C170.325 222.631 170.494 222.456 170.619 222.231C170.743 222 170.806 221.726 170.806 221.408ZM174.715 219.62C174.883 219.346 175.102 219.131 175.37 218.975C175.645 218.819 175.956 218.741 176.306 218.741V220.116H175.96C175.548 220.116 175.236 220.213 175.024 220.406C174.818 220.6 174.715 220.937 174.715 221.417V224H173.405V218.816H174.715V219.62Z" fill="#9CA5AC"/>
<path d="M221.651 222.755H219.049L218.619 224H217.243L219.592 217.459H221.118L223.466 224H222.081L221.651 222.755ZM221.295 221.707L220.35 218.975L219.405 221.707H221.295ZM225.655 219.564C225.823 219.327 226.054 219.131 226.347 218.975C226.647 218.812 226.987 218.731 227.367 218.731C227.81 218.731 228.209 218.841 228.565 219.059C228.927 219.277 229.211 219.589 229.417 219.995C229.629 220.394 229.735 220.859 229.735 221.389C229.735 221.919 229.629 222.39 229.417 222.802C229.211 223.208 228.927 223.523 228.565 223.747C228.209 223.972 227.81 224.084 227.367 224.084C226.987 224.084 226.65 224.006 226.356 223.85C226.069 223.694 225.835 223.498 225.655 223.261V226.471H224.344V218.816H225.655V219.564ZM228.396 221.389C228.396 221.077 228.331 220.809 228.2 220.584C228.075 220.353 227.907 220.179 227.695 220.06C227.489 219.942 227.264 219.882 227.021 219.882C226.784 219.882 226.559 219.945 226.347 220.07C226.141 220.188 225.973 220.363 225.842 220.594C225.717 220.824 225.655 221.096 225.655 221.408C225.655 221.72 225.717 221.991 225.842 222.222C225.973 222.453 226.141 222.631 226.347 222.755C226.559 222.874 226.784 222.933 227.021 222.933C227.264 222.933 227.489 222.871 227.695 222.746C227.907 222.621 228.075 222.443 228.2 222.213C228.331 221.982 228.396 221.707 228.396 221.389ZM231.997 219.62C232.165 219.346 232.384 219.131 232.652 218.975C232.926 218.819 233.238 218.741 233.588 218.741V220.116H233.241C232.83 220.116 232.518 220.213 232.306 220.406C232.1 220.6 231.997 220.937 231.997 221.417V224H230.687V218.816H231.997V219.62Z" fill="#9CA5AC"/>
<path d="M282.767 217.468V224H281.457V219.751L279.707 224H278.715L276.956 219.751V224H275.646V217.468H277.134L279.211 222.325L281.289 217.468H282.767ZM283.726 221.389C283.726 220.865 283.829 220.4 284.034 219.995C284.247 219.589 284.53 219.277 284.886 219.059C285.248 218.841 285.65 218.731 286.093 218.731C286.48 218.731 286.817 218.809 287.104 218.965C287.397 219.121 287.631 219.318 287.806 219.555V218.816H289.125V224H287.806V223.242C287.637 223.485 287.403 223.688 287.104 223.85C286.811 224.006 286.471 224.084 286.084 224.084C285.647 224.084 285.248 223.972 284.886 223.747C284.53 223.523 284.247 223.208 284.034 222.802C283.829 222.39 283.726 221.919 283.726 221.389ZM287.806 221.408C287.806 221.09 287.743 220.818 287.619 220.594C287.494 220.363 287.325 220.188 287.113 220.07C286.901 219.945 286.673 219.882 286.43 219.882C286.187 219.882 285.962 219.942 285.756 220.06C285.55 220.179 285.382 220.353 285.251 220.584C285.126 220.809 285.064 221.077 285.064 221.389C285.064 221.701 285.126 221.976 285.251 222.213C285.382 222.443 285.55 222.621 285.756 222.746C285.968 222.871 286.193 222.933 286.43 222.933C286.673 222.933 286.901 222.874 287.113 222.755C287.325 222.631 287.494 222.456 287.619 222.231C287.743 222 287.806 221.726 287.806 221.408ZM295.365 218.816L292.155 226.452H290.76L291.883 223.869L289.806 218.816H291.275L292.613 222.437L293.97 218.816H295.365Z" fill="#9CA5AC"/>
<path d="M337.454 217.468V222.054C337.454 222.69 337.27 223.186 336.902 223.541C336.534 223.891 336.041 224.066 335.424 224.066C334.8 224.066 334.295 223.885 333.908 223.523C333.527 223.161 333.337 222.656 333.337 222.007H334.647C334.653 222.287 334.719 222.506 334.844 222.662C334.975 222.818 335.162 222.896 335.405 222.896C335.642 222.896 335.823 222.821 335.948 222.671C336.073 222.521 336.135 222.316 336.135 222.054V217.468H337.454ZM343.877 218.816V224H342.558V223.345C342.389 223.57 342.168 223.747 341.893 223.878C341.625 224.003 341.332 224.066 341.013 224.066C340.608 224.066 340.249 223.981 339.937 223.813C339.625 223.638 339.379 223.385 339.198 223.055C339.023 222.718 338.936 222.319 338.936 221.857V218.816H340.246V221.67C340.246 222.082 340.349 222.4 340.555 222.624C340.761 222.843 341.042 222.952 341.397 222.952C341.759 222.952 342.043 222.843 342.249 222.624C342.455 222.4 342.558 222.082 342.558 221.67V218.816H343.877ZM348.043 218.741C348.66 218.741 349.159 218.937 349.54 219.33C349.92 219.717 350.111 220.26 350.111 220.959V224H348.801V221.136C348.801 220.725 348.698 220.41 348.492 220.191C348.286 219.967 348.005 219.854 347.65 219.854C347.288 219.854 347.001 219.967 346.789 220.191C346.583 220.41 346.48 220.725 346.48 221.136V224H345.17V218.816H346.48V219.461C346.655 219.237 346.876 219.062 347.144 218.937C347.419 218.806 347.718 218.741 348.043 218.741Z" fill="#9CA5AC"/>
<path d="M396.454 217.468V222.054C396.454 222.69 396.27 223.186 395.902 223.541C395.534 223.891 395.041 224.066 394.424 224.066C393.8 224.066 393.295 223.885 392.908 223.523C392.527 223.161 392.337 222.656 392.337 222.007H393.647C393.653 222.287 393.719 222.506 393.844 222.662C393.975 222.818 394.162 222.896 394.405 222.896C394.642 222.896 394.823 222.821 394.948 222.671C395.073 222.521 395.135 222.316 395.135 222.054V217.468H396.454ZM402.877 218.816V224H401.558V223.345C401.389 223.57 401.168 223.747 400.893 223.878C400.625 224.003 400.332 224.066 400.013 224.066C399.608 224.066 399.249 223.981 398.937 223.813C398.625 223.638 398.379 223.385 398.198 223.055C398.023 222.718 397.936 222.319 397.936 221.857V218.816H399.246V221.67C399.246 222.082 399.349 222.4 399.555 222.624C399.761 222.843 400.042 222.952 400.397 222.952C400.759 222.952 401.043 222.843 401.249 222.624C401.455 222.4 401.558 222.082 401.558 221.67V218.816H402.877ZM405.48 217.075V224H404.17V217.075H405.48Z" fill="#9CA5AC"/>
<path d="M452.651 222.755H450.049L449.619 224H448.243L450.592 217.459H452.118L454.466 224H453.081L452.651 222.755ZM452.295 221.707L451.35 218.975L450.405 221.707H452.295ZM460.239 218.816V224H458.919V223.345C458.751 223.57 458.529 223.747 458.255 223.878C457.987 224.003 457.693 224.066 457.375 224.066C456.97 224.066 456.611 223.981 456.299 223.813C455.987 223.638 455.741 223.385 455.56 223.055C455.385 222.718 455.298 222.319 455.298 221.857V218.816H456.608V221.67C456.608 222.082 456.711 222.4 456.917 222.624C457.122 222.843 457.403 222.952 457.759 222.952C458.121 222.952 458.405 222.843 458.61 222.624C458.816 222.4 458.919 222.082 458.919 221.67V218.816H460.239ZM463.562 218.731C463.949 218.731 464.289 218.809 464.582 218.965C464.875 219.115 465.106 219.312 465.275 219.555V218.816H466.594V224.037C466.594 224.518 466.497 224.945 466.304 225.319C466.111 225.7 465.82 226 465.434 226.218C465.047 226.442 464.579 226.555 464.03 226.555C463.294 226.555 462.689 226.383 462.215 226.04C461.747 225.697 461.481 225.229 461.419 224.636H462.72C462.788 224.873 462.935 225.061 463.16 225.198C463.391 225.341 463.668 225.413 463.993 225.413C464.373 225.413 464.682 225.298 464.919 225.067C465.156 224.842 465.275 224.499 465.275 224.037V223.233C465.106 223.476 464.872 223.679 464.573 223.841C464.28 224.003 463.943 224.084 463.562 224.084C463.125 224.084 462.726 223.972 462.364 223.747C462.002 223.523 461.715 223.208 461.503 222.802C461.297 222.39 461.194 221.919 461.194 221.389C461.194 220.865 461.297 220.4 461.503 219.995C461.715 219.589 461.999 219.277 462.355 219.059C462.717 218.841 463.119 218.731 463.562 218.731ZM465.275 221.408C465.275 221.09 465.212 220.818 465.087 220.594C464.963 220.363 464.794 220.188 464.582 220.07C464.37 219.945 464.142 219.882 463.899 219.882C463.656 219.882 463.431 219.942 463.225 220.06C463.019 220.179 462.851 220.353 462.72 220.584C462.595 220.809 462.533 221.077 462.533 221.389C462.533 221.701 462.595 221.976 462.72 222.213C462.851 222.443 463.019 222.621 463.225 222.746C463.437 222.871 463.662 222.933 463.899 222.933C464.142 222.933 464.37 222.874 464.582 222.755C464.794 222.631 464.963 222.456 465.087 222.231C465.212 222 465.275 221.726 465.275 221.408Z" fill="#9CA5AC"/>
<path d="M510.901 224.066C510.446 224.066 510.034 223.988 509.666 223.832C509.304 223.676 509.017 223.451 508.805 223.158C508.593 222.865 508.484 222.518 508.477 222.119H509.881C509.9 222.387 509.993 222.599 510.162 222.755C510.336 222.911 510.573 222.989 510.873 222.989C511.179 222.989 511.419 222.918 511.594 222.774C511.768 222.624 511.856 222.431 511.856 222.194C511.856 222 511.796 221.841 511.678 221.717C511.559 221.592 511.409 221.495 511.229 221.427C511.054 221.352 510.811 221.271 510.499 221.183C510.074 221.058 509.728 220.937 509.46 220.818C509.198 220.693 508.97 220.509 508.777 220.266C508.59 220.017 508.496 219.686 508.496 219.274C508.496 218.887 508.593 218.55 508.786 218.263C508.979 217.977 509.251 217.758 509.6 217.608C509.95 217.452 510.349 217.374 510.798 217.374C511.472 217.374 512.018 217.54 512.436 217.87C512.86 218.195 513.094 218.65 513.138 219.237H511.696C511.684 219.012 511.587 218.828 511.406 218.685C511.232 218.535 510.998 218.46 510.704 218.46C510.449 218.46 510.243 218.526 510.087 218.657C509.937 218.788 509.862 218.978 509.862 219.227C509.862 219.402 509.918 219.549 510.031 219.667C510.149 219.78 510.293 219.873 510.461 219.948C510.636 220.017 510.879 220.098 511.191 220.191C511.615 220.316 511.962 220.441 512.23 220.566C512.498 220.69 512.729 220.878 512.922 221.127C513.116 221.377 513.212 221.704 513.212 222.11C513.212 222.459 513.122 222.783 512.941 223.083C512.76 223.382 512.495 223.623 512.146 223.803C511.796 223.978 511.381 224.066 510.901 224.066ZM519.168 221.296C519.168 221.483 519.155 221.651 519.13 221.801H515.34C515.371 222.175 515.502 222.468 515.733 222.681C515.964 222.893 516.248 222.999 516.585 222.999C517.071 222.999 517.418 222.79 517.624 222.372H519.037C518.887 222.871 518.6 223.283 518.176 223.607C517.752 223.925 517.231 224.084 516.613 224.084C516.114 224.084 515.665 223.975 515.265 223.757C514.872 223.532 514.564 223.217 514.339 222.812C514.121 222.406 514.011 221.938 514.011 221.408C514.011 220.871 514.121 220.4 514.339 219.995C514.557 219.589 514.863 219.277 515.256 219.059C515.649 218.841 516.101 218.731 516.613 218.731C517.106 218.731 517.546 218.837 517.932 219.05C518.325 219.262 518.628 219.564 518.84 219.957C519.059 220.344 519.168 220.79 519.168 221.296ZM517.811 220.921C517.805 220.584 517.683 220.316 517.446 220.116C517.209 219.911 516.919 219.808 516.576 219.808C516.251 219.808 515.977 219.907 515.752 220.107C515.534 220.3 515.4 220.572 515.35 220.921H517.811ZM521.434 219.564C521.603 219.327 521.833 219.131 522.127 218.975C522.426 218.812 522.766 218.731 523.147 218.731C523.59 218.731 523.989 218.841 524.344 219.059C524.706 219.277 524.99 219.589 525.196 219.995C525.408 220.394 525.514 220.859 525.514 221.389C525.514 221.919 525.408 222.39 525.196 222.802C524.99 223.208 524.706 223.523 524.344 223.747C523.989 223.972 523.59 224.084 523.147 224.084C522.766 224.084 522.429 224.006 522.136 223.85C521.849 223.694 521.615 223.498 521.434 223.261V226.471H520.124V218.816H521.434V219.564ZM524.176 221.389C524.176 221.077 524.111 220.809 523.98 220.584C523.855 220.353 523.686 220.179 523.474 220.06C523.268 219.942 523.044 219.882 522.8 219.882C522.563 219.882 522.339 219.945 522.127 220.07C521.921 220.188 521.752 220.363 521.621 220.594C521.497 220.824 521.434 221.096 521.434 221.408C521.434 221.72 521.497 221.991 521.621 222.222C521.752 222.453 521.921 222.631 522.127 222.755C522.339 222.874 522.563 222.933 522.8 222.933C523.044 222.933 523.268 222.871 523.474 222.746C523.686 222.621 523.855 222.443 523.98 222.213C524.111 221.982 524.176 221.707 524.176 221.389Z" fill="#9CA5AC"/>
<path d="M569.678 224.066C569.066 224.066 568.505 223.922 567.993 223.635C567.482 223.348 567.076 222.952 566.777 222.447C566.477 221.935 566.328 221.358 566.328 220.715C566.328 220.079 566.477 219.508 566.777 219.003C567.076 218.491 567.482 218.092 567.993 217.805C568.505 217.518 569.066 217.374 569.678 217.374C570.295 217.374 570.857 217.518 571.362 217.805C571.874 218.092 572.276 218.491 572.569 219.003C572.869 219.508 573.019 220.079 573.019 220.715C573.019 221.358 572.869 221.935 572.569 222.447C572.276 222.952 571.874 223.348 571.362 223.635C570.851 223.922 570.289 224.066 569.678 224.066ZM569.678 222.896C570.071 222.896 570.417 222.808 570.716 222.634C571.016 222.453 571.25 222.197 571.418 221.866C571.587 221.536 571.671 221.152 571.671 220.715C571.671 220.279 571.587 219.898 571.418 219.574C571.25 219.243 571.016 218.99 570.716 218.816C570.417 218.641 570.071 218.554 569.678 218.554C569.285 218.554 568.935 218.641 568.63 218.816C568.33 218.99 568.096 219.243 567.928 219.574C567.759 219.898 567.675 220.279 567.675 220.715C567.675 221.152 567.759 221.536 567.928 221.866C568.096 222.197 568.33 222.453 568.63 222.634C568.935 222.808 569.285 222.896 569.678 222.896ZM578.888 218.816V224H577.568V223.345C577.4 223.57 577.178 223.747 576.904 223.878C576.635 224.003 576.342 224.066 576.024 224.066C575.618 224.066 575.26 223.981 574.948 223.813C574.636 223.638 574.389 223.385 574.209 223.055C574.034 222.718 573.946 222.319 573.946 221.857V218.816H575.257V221.67C575.257 222.082 575.36 222.4 575.565 222.624C575.771 222.843 576.052 222.952 576.408 222.952C576.77 222.952 577.053 222.843 577.259 222.624C577.465 222.4 577.568 222.082 577.568 221.67V218.816H578.888ZM581.706 219.892V222.4C581.706 222.574 581.746 222.702 581.827 222.783C581.915 222.858 582.058 222.896 582.258 222.896H582.866V224H582.042C580.938 224 580.386 223.463 580.386 222.39V219.892H579.768V218.816H580.386V217.534H581.706V218.816H582.866V219.892H581.706Z" fill="#9CA5AC"/>
<path d="M631.232 224H629.922L626.956 219.517V224H625.646V217.459H626.956L629.922 221.951V217.459H631.232V224ZM634.829 224.084C634.33 224.084 633.881 223.975 633.482 223.757C633.082 223.532 632.767 223.217 632.537 222.812C632.312 222.406 632.2 221.938 632.2 221.408C632.2 220.878 632.315 220.41 632.546 220.004C632.783 219.599 633.104 219.287 633.51 219.068C633.915 218.844 634.368 218.731 634.867 218.731C635.366 218.731 635.818 218.844 636.224 219.068C636.629 219.287 636.947 219.599 637.178 220.004C637.415 220.41 637.534 220.878 637.534 221.408C637.534 221.938 637.412 222.406 637.169 222.812C636.932 223.217 636.607 223.532 636.196 223.757C635.79 223.975 635.335 224.084 634.829 224.084ZM634.829 222.943C635.066 222.943 635.288 222.886 635.494 222.774C635.706 222.656 635.874 222.481 635.999 222.25C636.124 222.019 636.186 221.738 636.186 221.408C636.186 220.915 636.055 220.538 635.793 220.275C635.537 220.007 635.222 219.873 634.848 219.873C634.474 219.873 634.159 220.007 633.903 220.275C633.653 220.538 633.529 220.915 633.529 221.408C633.529 221.901 633.65 222.281 633.893 222.549C634.143 222.812 634.455 222.943 634.829 222.943ZM640.657 222.793L641.967 218.816H643.361L641.443 224H639.852L637.943 218.816H639.346L640.657 222.793Z" fill="#9CA5AC"/>
<path d="M687.929 217.468C688.615 217.468 689.217 217.602 689.735 217.87C690.259 218.139 690.662 218.522 690.942 219.021C691.229 219.514 691.373 220.088 691.373 220.743C691.373 221.398 691.229 221.972 690.942 222.465C690.662 222.952 690.259 223.329 689.735 223.598C689.217 223.866 688.615 224 687.929 224H685.646V217.468H687.929ZM687.882 222.886C688.569 222.886 689.099 222.699 689.473 222.325C689.847 221.951 690.035 221.423 690.035 220.743C690.035 220.063 689.847 219.533 689.473 219.153C689.099 218.766 688.569 218.572 687.882 218.572H686.956V222.886H687.882ZM697.173 221.296C697.173 221.483 697.16 221.651 697.136 221.801H693.346C693.377 222.175 693.508 222.468 693.739 222.681C693.969 222.893 694.253 222.999 694.59 222.999C695.077 222.999 695.423 222.79 695.629 222.372H697.042C696.892 222.871 696.605 223.283 696.181 223.607C695.757 223.925 695.236 224.084 694.618 224.084C694.119 224.084 693.67 223.975 693.271 223.757C692.878 223.532 692.569 223.217 692.344 222.812C692.126 222.406 692.017 221.938 692.017 221.408C692.017 220.871 692.126 220.4 692.344 219.995C692.563 219.589 692.868 219.277 693.261 219.059C693.654 218.841 694.107 218.731 694.618 218.731C695.111 218.731 695.551 218.837 695.938 219.05C696.331 219.262 696.633 219.564 696.845 219.957C697.064 220.344 697.173 220.79 697.173 221.296ZM695.816 220.921C695.81 220.584 695.688 220.316 695.451 220.116C695.214 219.911 694.924 219.808 694.581 219.808C694.256 219.808 693.982 219.907 693.757 220.107C693.539 220.3 693.405 220.572 693.355 220.921H695.816ZM699.327 222.924H701.639V224H697.839V222.943L700.104 219.892H697.849V218.816H701.61V219.873L699.327 222.924Z" fill="#9CA5AC"/>
<path d="M721.515 24.9747C721.546 24.3508 721.764 23.8705 722.17 23.5336C722.582 23.1904 723.121 23.0189 723.789 23.0189C724.244 23.0189 724.634 23.1 724.958 23.2622C725.283 23.4181 725.526 23.6334 725.688 23.9079C725.857 24.1761 725.941 24.4818 725.941 24.825C725.941 25.218 725.838 25.5518 725.632 25.8263C725.433 26.0946 725.192 26.2755 724.912 26.3691V26.4065C725.274 26.5188 725.554 26.7184 725.754 27.0054C725.96 27.2924 726.063 27.6605 726.063 28.1097C726.063 28.484 725.975 28.8178 725.801 29.111C725.632 29.4042 725.38 29.635 725.043 29.8035C724.712 29.9657 724.313 30.0468 723.845 30.0468C723.14 30.0468 722.566 29.869 722.123 29.5134C721.68 29.1578 721.446 28.6337 721.421 27.9412H722.694C722.706 28.2469 722.809 28.4933 723.003 28.6805C723.202 28.8614 723.474 28.9519 723.817 28.9519C724.135 28.9519 724.378 28.8646 724.547 28.6899C724.721 28.5089 724.809 28.2781 724.809 27.9974C724.809 27.623 724.69 27.3548 724.453 27.1926C724.216 27.0304 723.848 26.9493 723.349 26.9493H723.077V25.8731H723.349C724.235 25.8731 724.678 25.5767 724.678 24.9841C724.678 24.7158 724.597 24.5068 724.434 24.3571C724.278 24.2073 724.051 24.1325 723.751 24.1325C723.458 24.1325 723.23 24.2136 723.068 24.3758C722.912 24.5318 722.822 24.7314 722.797 24.9747H721.515ZM734.369 23.4681V30H733.059V25.7514L731.309 30H730.317L728.558 25.7514V30H727.248V23.4681H728.736L730.813 28.3249L732.891 23.4681H734.369Z" fill="#9CA5AC"/>
<path d="M721.337 140.385V139.178H723.592V146H722.245V140.385H721.337ZM732.158 139.468V146H730.848V141.751L729.098 146H728.106L726.346 141.751V146H725.036V139.468H726.524L728.602 144.325L730.679 139.468H732.158Z" fill="#9CA5AC"/>
<path d="M721.908 86.5214C722.507 86.0223 722.984 85.6074 723.34 85.2768C723.695 84.9399 723.991 84.5905 724.229 84.2287C724.466 83.8668 724.584 83.5112 724.584 83.1619C724.584 82.8437 724.509 82.5941 724.36 82.4132C724.21 82.2323 723.979 82.1418 723.667 82.1418C723.355 82.1418 723.115 82.2479 722.946 82.46C722.778 82.6659 722.691 82.9498 722.684 83.3116H721.412C721.437 82.5629 721.658 81.9952 722.076 81.6084C722.5 81.2216 723.037 81.0282 723.686 81.0282C724.397 81.0282 724.943 81.2185 725.323 81.5991C725.704 81.9734 725.894 82.4694 725.894 83.087C725.894 83.5736 725.763 84.0384 725.501 84.4814C725.239 84.9243 724.94 85.3111 724.603 85.6418C724.266 85.9662 723.826 86.3592 723.283 86.8209H726.044V87.9064H721.421V86.9332L721.908 86.5214ZM734.141 81.4681V88H732.831V83.7514L731.081 88H730.089L728.329 83.7514V88H727.019V81.4681H728.507L730.585 86.3249L732.662 81.4681H734.141Z" fill="#9CA5AC"/>
<path d="M721.496 200.5C721.496 199.421 721.689 198.575 722.076 197.964C722.469 197.353 723.118 197.047 724.023 197.047C724.927 197.047 725.573 197.353 725.96 197.964C726.353 198.575 726.549 199.421 726.549 200.5C726.549 201.586 726.353 202.437 725.96 203.055C725.573 203.672 724.927 203.981 724.023 203.981C723.118 203.981 722.469 203.672 722.076 203.055C721.689 202.437 721.496 201.586 721.496 200.5ZM725.258 200.5C725.258 200.038 725.227 199.652 725.164 199.34C725.108 199.021 724.99 198.763 724.809 198.563C724.634 198.363 724.372 198.263 724.023 198.263C723.673 198.263 723.408 198.363 723.227 198.563C723.053 198.763 722.934 199.021 722.872 199.34C722.815 199.652 722.787 200.038 722.787 200.5C722.787 200.974 722.815 201.373 722.872 201.698C722.928 202.016 723.046 202.275 723.227 202.475C723.408 202.668 723.673 202.765 724.023 202.765C724.372 202.765 724.637 202.668 724.818 202.475C724.999 202.275 725.118 202.016 725.174 201.698C725.23 201.373 725.258 200.974 725.258 200.5Z" fill="#9CA5AC"/>
<path d="M721.908 57.5214C722.507 57.0223 722.984 56.6074 723.34 56.2768C723.695 55.9399 723.991 55.5905 724.229 55.2287C724.466 54.8668 724.584 54.5112 724.584 54.1619C724.584 53.8437 724.509 53.5941 724.36 53.4132C724.21 53.2323 723.979 53.1418 723.667 53.1418C723.355 53.1418 723.115 53.2479 722.946 53.46C722.778 53.6659 722.691 53.9498 722.684 54.3116H721.412C721.437 53.5629 721.658 52.9952 722.076 52.6084C722.5 52.2216 723.037 52.0282 723.686 52.0282C724.397 52.0282 724.943 52.2185 725.323 52.5991C725.704 52.9734 725.894 53.4694 725.894 54.087C725.894 54.5736 725.763 55.0384 725.501 55.4814C725.239 55.9243 724.94 56.3111 724.603 56.6418C724.266 56.9662 723.826 57.3592 723.283 57.8209H726.044V58.9064H721.421V57.9332L721.908 57.5214ZM727.6 59.0655C727.362 59.0655 727.166 58.9938 727.01 58.8503C726.86 58.7005 726.785 58.5165 726.785 58.2981C726.785 58.0798 726.86 57.8989 727.01 57.7554C727.166 57.6056 727.362 57.5308 727.6 57.5308C727.83 57.5308 728.021 57.6056 728.17 57.7554C728.32 57.8989 728.395 58.0798 728.395 58.2981C728.395 58.5165 728.32 58.7005 728.17 58.8503C728.021 58.9938 727.83 59.0655 727.6 59.0655ZM733.886 53.3103H730.854V54.9105C730.985 54.7483 731.172 54.6173 731.415 54.5175C731.659 54.4114 731.918 54.3584 732.192 54.3584C732.691 54.3584 733.1 54.4676 733.418 54.6859C733.736 54.9043 733.967 55.185 734.111 55.5281C734.254 55.865 734.326 56.2269 734.326 56.6137C734.326 57.3311 734.12 57.9082 733.708 58.3449C733.303 58.7816 732.722 59 731.968 59C731.256 59 730.689 58.8222 730.264 58.4666C729.84 58.111 729.6 57.6462 729.544 57.0722H730.816C730.873 57.3218 730.997 57.5214 731.191 57.6712C731.39 57.8209 731.643 57.8957 731.949 57.8957C732.317 57.8957 732.595 57.7803 732.782 57.5495C732.969 57.3187 733.062 57.013 733.062 56.6324C733.062 56.2456 732.966 55.9524 732.772 55.7527C732.585 55.5469 732.308 55.4439 731.939 55.4439C731.677 55.4439 731.459 55.5094 731.284 55.6404C731.11 55.7715 730.985 55.9461 730.91 56.1645H729.656V52.1592H733.886V53.3103ZM742.594 52.4681V59H741.284V54.7514L739.534 59H738.542L736.783 54.7514V59H735.473V52.4681H736.961L739.038 57.3249L741.116 52.4681H742.594Z" fill="#9CA5AC"/>
<path d="M726.081 169.31H723.049V170.911C723.18 170.748 723.368 170.617 723.611 170.517C723.854 170.411 724.113 170.358 724.388 170.358C724.887 170.358 725.295 170.468 725.614 170.686C725.932 170.904 726.163 171.185 726.306 171.528C726.45 171.865 726.521 172.227 726.521 172.614C726.521 173.331 726.315 173.908 725.904 174.345C725.498 174.782 724.918 175 724.163 175C723.452 175 722.884 174.822 722.46 174.467C722.036 174.111 721.795 173.646 721.739 173.072H723.012C723.068 173.322 723.193 173.521 723.386 173.671C723.586 173.821 723.839 173.896 724.144 173.896C724.512 173.896 724.79 173.78 724.977 173.549C725.164 173.319 725.258 173.013 725.258 172.632C725.258 172.246 725.161 171.952 724.968 171.753C724.781 171.547 724.503 171.444 724.135 171.444C723.873 171.444 723.655 171.509 723.48 171.64C723.305 171.771 723.18 171.946 723.106 172.164H721.852V168.159H726.081V169.31ZM727.518 171.5C727.518 170.421 727.712 169.575 728.099 168.964C728.492 168.353 729.14 168.047 730.045 168.047C730.95 168.047 731.595 168.353 731.982 168.964C732.375 169.575 732.572 170.421 732.572 171.5C732.572 172.586 732.375 173.437 731.982 174.055C731.595 174.672 730.95 174.981 730.045 174.981C729.14 174.981 728.492 174.672 728.099 174.055C727.712 173.437 727.518 172.586 727.518 171.5ZM731.28 171.5C731.28 171.038 731.249 170.652 731.187 170.34C731.131 170.021 731.012 169.763 730.831 169.563C730.657 169.363 730.394 169.263 730.045 169.263C729.696 169.263 729.431 169.363 729.25 169.563C729.075 169.763 728.956 170.021 728.894 170.34C728.838 170.652 728.81 171.038 728.81 171.5C728.81 171.974 728.838 172.373 728.894 172.698C728.95 173.016 729.069 173.275 729.25 173.475C729.431 173.668 729.696 173.765 730.045 173.765C730.394 173.765 730.66 173.668 730.841 173.475C731.021 173.275 731.14 173.016 731.196 172.698C731.252 172.373 731.28 171.974 731.28 171.5ZM736.787 175L735.028 172.791V175H733.718V168.075H735.028V172.015L736.769 169.816H738.472L736.189 172.417L738.491 175H736.787Z" fill="#9CA5AC"/>
<path d="M721.337 111.385V110.178H723.592V117H722.245V111.385H721.337ZM725.616 117.066C725.379 117.066 725.183 116.994 725.027 116.85C724.877 116.701 724.802 116.516 724.802 116.298C724.802 116.08 724.877 115.899 725.027 115.755C725.183 115.606 725.379 115.531 725.616 115.531C725.847 115.531 726.038 115.606 726.187 115.755C726.337 115.899 726.412 116.08 726.412 116.298C726.412 116.516 726.337 116.701 726.187 116.85C726.038 116.994 725.847 117.066 725.616 117.066ZM731.903 111.31H728.871V112.911C729.002 112.748 729.189 112.617 729.432 112.517C729.676 112.411 729.935 112.358 730.209 112.358C730.708 112.358 731.117 112.468 731.435 112.686C731.753 112.904 731.984 113.185 732.127 113.528C732.271 113.865 732.343 114.227 732.343 114.614C732.343 115.331 732.137 115.908 731.725 116.345C731.32 116.782 730.739 117 729.984 117C729.273 117 728.705 116.822 728.281 116.467C727.857 116.111 727.617 115.646 727.561 115.072H728.833C728.89 115.322 729.014 115.521 729.208 115.671C729.407 115.821 729.66 115.896 729.966 115.896C730.334 115.896 730.611 115.78 730.799 115.549C730.986 115.319 731.079 115.013 731.079 114.632C731.079 114.246 730.983 113.952 730.789 113.753C730.602 113.547 730.324 113.444 729.956 113.444C729.694 113.444 729.476 113.509 729.301 113.64C729.127 113.771 729.002 113.946 728.927 114.164H727.673V110.159H731.903V111.31ZM740.611 110.468V117H739.301V112.751L737.551 117H736.559L734.8 112.751V117H733.49V110.468H734.977L737.055 115.325L739.132 110.468H740.611Z" fill="#9CA5AC"/>
</svg>
